%
M48
M72
T01C0.0394
T02C0.2362
%
T01
X15701Y1504
X16701Y1504
X17701Y1504
X18701Y1504
X19701Y1504
X20701Y1504
X22701Y1504
X23701Y1504
X24701Y1504
X25701Y1504
X26701Y1504
X27701Y1504
X18079Y8474
X17292Y8474
X16504Y8474
X15717Y8474
X16111Y13533
X16898Y13533
X17685Y13533
X18473Y13533
X18101Y20504
X17101Y20504
X16101Y20504
X15101Y20504
X14101Y20504
X13101Y20504
X12101Y20504
X19101Y20504
X20701Y20504
X21701Y20504
X22701Y20504
X23701Y20504
X24701Y20504
X25701Y20504
X26701Y20504
X27701Y20504
T02
X16701Y11004
M30
