%
M48
M72
T01C0.0394
T02C0.0400
T03C0.2362
%
T01
X15701Y1504
X16701Y1504
X17701Y1504
X18701Y1504
X19701Y1504
X20701Y1504
X22701Y1504
X23701Y1504
X24701Y1504
X25701Y1504
X26701Y1504
X27701Y1504
X19579Y7974
X18792Y7974
X18004Y7974
X17217Y7974
X17611Y13033
X18398Y13033
X19185Y13033
X19973Y13033
X20701Y20504
X21701Y20504
X22701Y20504
X23701Y20504
X24701Y20504
X25701Y20504
X26701Y20504
X27701Y20504
X19101Y20504
X18101Y20504
X17101Y20504
X16101Y20504
X15101Y20504
X14101Y20504
X13101Y20504
X12101Y20504
T02
X27701Y14504
X27701Y13504
X27701Y12504
X27701Y11504
X27701Y10504
X27701Y9504
X27701Y8504
X27701Y7504
X27701Y6504
X27701Y5504
X27701Y4504
X27701Y3504
T03
X18201Y10504
M30
