G75*
G70*
%OFA0B0*%
%FSLAX24Y24*%
%IPPOS*%
%LPD*%
%AMOC8*
5,1,8,0,0,1.08239X$1,22.5*
%
%ADD10C,0.0740*%
%ADD11C,0.0671*%
%ADD12C,0.2442*%
%ADD13R,0.0474X0.0631*%
%ADD14R,0.0710X0.0790*%
%ADD15R,0.0790X0.0710*%
%ADD16R,0.0960X0.0560*%
%ADD17R,0.0946X0.1497*%
%ADD18R,0.0710X0.0789*%
%ADD19C,0.0680*%
D10*
X015701Y001504D03*
X016701Y001504D03*
X017701Y001504D03*
X018701Y001504D03*
X019701Y001504D03*
X020701Y001504D03*
X022701Y001504D03*
X023701Y001504D03*
X024701Y001504D03*
X025701Y001504D03*
X026701Y001504D03*
X027701Y001504D03*
X027701Y020504D03*
X026701Y020504D03*
X025701Y020504D03*
X024701Y020504D03*
X023701Y020504D03*
X022701Y020504D03*
X021701Y020504D03*
X020701Y020504D03*
X019101Y020504D03*
X018101Y020504D03*
X017101Y020504D03*
X016101Y020504D03*
X015101Y020504D03*
X014101Y020504D03*
X013101Y020504D03*
X012101Y020504D03*
D11*
X017611Y013033D03*
X018398Y013033D03*
X019185Y013033D03*
X019973Y013033D03*
X019579Y007974D03*
X018792Y007974D03*
X018004Y007974D03*
X017217Y007974D03*
D12*
X018201Y010504D03*
D13*
X017575Y016071D03*
X016827Y016071D03*
X017201Y016937D03*
D14*
G36*
X013835Y006080D02*
X013333Y005578D01*
X012775Y006136D01*
X013277Y006638D01*
X013835Y006080D01*
G37*
G36*
X014627Y006872D02*
X014125Y006370D01*
X013567Y006928D01*
X014069Y007430D01*
X014627Y006872D01*
G37*
X015641Y005504D03*
X016761Y005504D03*
X017641Y005504D03*
X018761Y005504D03*
X016761Y004004D03*
X015641Y004004D03*
X021141Y010004D03*
X022261Y010004D03*
X022261Y011504D03*
X021141Y011504D03*
X017761Y015004D03*
X016641Y015004D03*
X015261Y014004D03*
X014141Y014004D03*
D15*
X019701Y014944D03*
X021201Y014944D03*
X021201Y016064D03*
X019701Y016064D03*
X026201Y012064D03*
X026201Y010944D03*
X026201Y009064D03*
X026201Y007944D03*
X026201Y006064D03*
X026201Y004944D03*
D16*
X015421Y009594D03*
X015421Y010504D03*
X015421Y011414D03*
D17*
X012981Y010504D03*
D18*
X013650Y012504D03*
X014752Y012504D03*
X014752Y008504D03*
X013650Y008504D03*
D19*
X027701Y008504D03*
X027701Y009504D03*
X027701Y010504D03*
X027701Y011504D03*
X027701Y012504D03*
X027701Y013504D03*
X027701Y014504D03*
X027701Y007504D03*
X027701Y006504D03*
X027701Y005504D03*
X027701Y004504D03*
X027701Y003504D03*
M02*
