G75*
G70*
%OFA0B0*%
%FSLAX24Y24*%
%IPPOS*%
%LPD*%
%AMOC8*
5,1,8,0,0,1.08239X$1,22.5*
%
%ADD10C,0.0000*%
%ADD11C,0.0030*%
%ADD12C,0.0040*%
%ADD13C,0.0080*%
%ADD14C,0.0060*%
%ADD15C,0.0300*%
%ADD16R,0.0200X0.0300*%
%ADD17C,0.0050*%
%ADD18R,0.0400X0.0300*%
D10*
X011201Y000504D02*
X011201Y021504D01*
X029701Y021504D01*
X029701Y000504D01*
X011201Y000504D01*
X017020Y010504D02*
X017022Y010573D01*
X017028Y010641D01*
X017038Y010709D01*
X017052Y010776D01*
X017070Y010843D01*
X017091Y010908D01*
X017117Y010972D01*
X017146Y011034D01*
X017178Y011094D01*
X017214Y011153D01*
X017254Y011209D01*
X017296Y011263D01*
X017342Y011314D01*
X017391Y011363D01*
X017442Y011409D01*
X017496Y011451D01*
X017552Y011491D01*
X017610Y011527D01*
X017671Y011559D01*
X017733Y011588D01*
X017797Y011614D01*
X017862Y011635D01*
X017929Y011653D01*
X017996Y011667D01*
X018064Y011677D01*
X018132Y011683D01*
X018201Y011685D01*
X018270Y011683D01*
X018338Y011677D01*
X018406Y011667D01*
X018473Y011653D01*
X018540Y011635D01*
X018605Y011614D01*
X018669Y011588D01*
X018731Y011559D01*
X018791Y011527D01*
X018850Y011491D01*
X018906Y011451D01*
X018960Y011409D01*
X019011Y011363D01*
X019060Y011314D01*
X019106Y011263D01*
X019148Y011209D01*
X019188Y011153D01*
X019224Y011094D01*
X019256Y011034D01*
X019285Y010972D01*
X019311Y010908D01*
X019332Y010843D01*
X019350Y010776D01*
X019364Y010709D01*
X019374Y010641D01*
X019380Y010573D01*
X019382Y010504D01*
X019380Y010435D01*
X019374Y010367D01*
X019364Y010299D01*
X019350Y010232D01*
X019332Y010165D01*
X019311Y010100D01*
X019285Y010036D01*
X019256Y009974D01*
X019224Y009913D01*
X019188Y009855D01*
X019148Y009799D01*
X019106Y009745D01*
X019060Y009694D01*
X019011Y009645D01*
X018960Y009599D01*
X018906Y009557D01*
X018850Y009517D01*
X018792Y009481D01*
X018731Y009449D01*
X018669Y009420D01*
X018605Y009394D01*
X018540Y009373D01*
X018473Y009355D01*
X018406Y009341D01*
X018338Y009331D01*
X018270Y009325D01*
X018201Y009323D01*
X018132Y009325D01*
X018064Y009331D01*
X017996Y009341D01*
X017929Y009355D01*
X017862Y009373D01*
X017797Y009394D01*
X017733Y009420D01*
X017671Y009449D01*
X017610Y009481D01*
X017552Y009517D01*
X017496Y009557D01*
X017442Y009599D01*
X017391Y009645D01*
X017342Y009694D01*
X017296Y009745D01*
X017254Y009799D01*
X017214Y009855D01*
X017178Y009913D01*
X017146Y009974D01*
X017117Y010036D01*
X017091Y010100D01*
X017070Y010165D01*
X017052Y010232D01*
X017038Y010299D01*
X017028Y010367D01*
X017022Y010435D01*
X017020Y010504D01*
D11*
X016583Y002389D02*
X016645Y002328D01*
X016645Y002266D01*
X016583Y002204D01*
X016645Y002142D01*
X016645Y002081D01*
X016583Y002019D01*
X016460Y002019D01*
X016398Y002081D01*
X016522Y002204D02*
X016583Y002204D01*
X016583Y002389D02*
X016460Y002389D01*
X016398Y002328D01*
X015996Y002389D02*
X015749Y002389D01*
X015872Y002389D02*
X015872Y002019D01*
X015627Y002081D02*
X015566Y002019D01*
X015442Y002019D01*
X015380Y002081D01*
X015259Y002019D02*
X015136Y002142D01*
X015197Y002142D02*
X015012Y002142D01*
X015012Y002019D02*
X015012Y002389D01*
X015197Y002389D01*
X015259Y002328D01*
X015259Y002204D01*
X015197Y002142D01*
X015380Y002266D02*
X015442Y002204D01*
X015566Y002204D01*
X015627Y002142D01*
X015627Y002081D01*
X015627Y002328D02*
X015566Y002389D01*
X015442Y002389D01*
X015380Y002328D01*
X015380Y002266D01*
X016766Y002266D02*
X016890Y002019D01*
X017013Y002266D01*
X017498Y002204D02*
X017622Y002266D01*
X017683Y002266D01*
X017745Y002204D01*
X017745Y002081D01*
X017683Y002019D01*
X017560Y002019D01*
X017498Y002081D01*
X017498Y002204D02*
X017498Y002389D01*
X017745Y002389D01*
X017866Y002266D02*
X017990Y002019D01*
X018113Y002266D01*
X018770Y002328D02*
X018770Y002081D01*
X018832Y002019D01*
X018955Y002019D01*
X019017Y002081D01*
X019017Y002204D01*
X018894Y002204D01*
X019017Y002328D02*
X018955Y002389D01*
X018832Y002389D01*
X018770Y002328D01*
X019138Y002266D02*
X019138Y002019D01*
X019138Y002266D02*
X019324Y002266D01*
X019385Y002204D01*
X019385Y002019D01*
X019507Y002081D02*
X019507Y002204D01*
X019568Y002266D01*
X019754Y002266D01*
X019754Y002389D02*
X019754Y002019D01*
X019568Y002019D01*
X019507Y002081D01*
X020348Y002142D02*
X020472Y002019D01*
X020595Y002142D01*
X020595Y002389D01*
X020716Y002266D02*
X020778Y002266D01*
X020778Y002019D01*
X020716Y002019D02*
X020840Y002019D01*
X020962Y002019D02*
X020962Y002266D01*
X021147Y002266D01*
X021209Y002204D01*
X021209Y002019D01*
X020778Y002389D02*
X020778Y002451D01*
X020348Y002389D02*
X020348Y002142D01*
X022566Y002081D02*
X022813Y002328D01*
X022813Y002081D01*
X022751Y002019D01*
X022628Y002019D01*
X022566Y002081D01*
X022566Y002328D01*
X022628Y002389D01*
X022751Y002389D01*
X022813Y002328D01*
X023566Y002266D02*
X023690Y002389D01*
X023690Y002019D01*
X023813Y002019D02*
X023566Y002019D01*
X024566Y002019D02*
X024813Y002266D01*
X024813Y002328D01*
X024751Y002389D01*
X024628Y002389D01*
X024566Y002328D01*
X024566Y002019D02*
X024813Y002019D01*
X025566Y002081D02*
X025628Y002019D01*
X025751Y002019D01*
X025813Y002081D01*
X025813Y002142D01*
X025751Y002204D01*
X025690Y002204D01*
X025751Y002204D02*
X025813Y002266D01*
X025813Y002328D01*
X025751Y002389D01*
X025628Y002389D01*
X025566Y002328D01*
X026566Y002204D02*
X026813Y002204D01*
X026751Y002019D02*
X026751Y002389D01*
X026566Y002204D01*
X027566Y002204D02*
X027690Y002266D01*
X027751Y002266D01*
X027813Y002204D01*
X027813Y002081D01*
X027751Y002019D01*
X027628Y002019D01*
X027566Y002081D01*
X027566Y002204D02*
X027566Y002389D01*
X027813Y002389D01*
X026906Y000948D02*
X026721Y000948D01*
X026721Y000701D01*
X026599Y000701D02*
X026475Y000701D01*
X026537Y000701D02*
X026537Y001071D01*
X026475Y001071D02*
X026599Y001071D01*
X026906Y000948D02*
X026968Y000886D01*
X026968Y000701D01*
X025986Y000701D02*
X025801Y000701D01*
X025739Y000763D01*
X025739Y000886D01*
X025801Y000948D01*
X025986Y000948D01*
X025986Y000639D01*
X025924Y000578D01*
X025862Y000578D01*
X025617Y000763D02*
X025617Y000886D01*
X025556Y000948D01*
X025432Y000948D01*
X025371Y000886D01*
X025371Y000763D01*
X025432Y000701D01*
X025556Y000701D01*
X025617Y000763D01*
X025248Y000701D02*
X025125Y000701D01*
X025187Y000701D02*
X025187Y001071D01*
X025125Y001071D01*
X024942Y000948D02*
X025004Y000886D01*
X025004Y000701D01*
X024818Y000701D01*
X024757Y000763D01*
X024818Y000824D01*
X025004Y000824D01*
X024942Y000948D02*
X024818Y000948D01*
X024635Y000886D02*
X024635Y000701D01*
X024635Y000886D02*
X024574Y000948D01*
X024388Y000948D01*
X024388Y000701D01*
X024267Y000701D02*
X024267Y000948D01*
X024144Y001071D01*
X024020Y000948D01*
X024020Y000701D01*
X024020Y000886D02*
X024267Y000886D01*
X024659Y019619D02*
X024598Y019681D01*
X024659Y019619D02*
X024783Y019619D01*
X024845Y019681D01*
X024845Y019742D01*
X024783Y019804D01*
X024721Y019804D01*
X024783Y019804D02*
X024845Y019866D01*
X024845Y019928D01*
X024783Y019989D01*
X024659Y019989D01*
X024598Y019928D01*
X023845Y019804D02*
X023598Y019804D01*
X023783Y019989D01*
X023783Y019619D01*
X022845Y019681D02*
X022783Y019619D01*
X022659Y019619D01*
X022598Y019681D01*
X022598Y019804D02*
X022721Y019866D01*
X022783Y019866D01*
X022845Y019804D01*
X022845Y019681D01*
X022598Y019804D02*
X022598Y019989D01*
X022845Y019989D01*
X021845Y019989D02*
X021721Y019928D01*
X021598Y019804D01*
X021783Y019804D01*
X021845Y019742D01*
X021845Y019681D01*
X021783Y019619D01*
X021659Y019619D01*
X021598Y019681D01*
X021598Y019804D01*
X020845Y019928D02*
X020598Y019681D01*
X020598Y019619D01*
X020598Y019989D02*
X020845Y019989D01*
X020845Y019928D01*
X019245Y019928D02*
X019245Y019866D01*
X019183Y019804D01*
X019059Y019804D01*
X018998Y019866D01*
X018998Y019928D01*
X019059Y019989D01*
X019183Y019989D01*
X019245Y019928D01*
X019183Y019804D02*
X019245Y019742D01*
X019245Y019681D01*
X019183Y019619D01*
X019059Y019619D01*
X018998Y019681D01*
X018998Y019742D01*
X019059Y019804D01*
X018245Y019804D02*
X018059Y019804D01*
X017998Y019866D01*
X017998Y019928D01*
X018059Y019989D01*
X018183Y019989D01*
X018245Y019928D01*
X018245Y019681D01*
X018183Y019619D01*
X018059Y019619D01*
X017998Y019681D01*
X017445Y019681D02*
X017383Y019619D01*
X017259Y019619D01*
X017198Y019681D01*
X017445Y019928D01*
X017445Y019681D01*
X017198Y019681D02*
X017198Y019928D01*
X017259Y019989D01*
X017383Y019989D01*
X017445Y019928D01*
X017076Y019619D02*
X016829Y019619D01*
X016953Y019619D02*
X016953Y019989D01*
X016829Y019866D01*
X016445Y019619D02*
X016198Y019619D01*
X016076Y019619D02*
X015829Y019619D01*
X015953Y019619D02*
X015953Y019989D01*
X015829Y019866D01*
X016198Y019866D02*
X016321Y019989D01*
X016321Y019619D01*
X015445Y019619D02*
X015198Y019619D01*
X015445Y019866D01*
X015445Y019928D01*
X015383Y019989D01*
X015259Y019989D01*
X015198Y019928D01*
X014953Y019989D02*
X014829Y019866D01*
X014953Y019989D02*
X014953Y019619D01*
X015076Y019619D02*
X014829Y019619D01*
X014445Y019681D02*
X014383Y019619D01*
X014259Y019619D01*
X014198Y019681D01*
X014076Y019619D02*
X013829Y019619D01*
X013953Y019619D02*
X013953Y019989D01*
X013829Y019866D01*
X013595Y019866D02*
X013409Y019866D01*
X013348Y019804D01*
X013348Y019681D01*
X013409Y019619D01*
X013595Y019619D01*
X013595Y019989D01*
X013226Y019804D02*
X013226Y019619D01*
X013226Y019804D02*
X013165Y019866D01*
X012979Y019866D01*
X012979Y019619D01*
X012858Y019619D02*
X012673Y019619D01*
X012611Y019681D01*
X012611Y019804D01*
X012673Y019866D01*
X012858Y019866D01*
X012858Y019557D01*
X012796Y019496D01*
X012735Y019496D01*
X012282Y019619D02*
X012282Y019928D01*
X012344Y019989D01*
X012344Y019804D02*
X012221Y019804D01*
X012099Y019804D02*
X012099Y019742D01*
X011852Y019742D01*
X011852Y019681D02*
X011852Y019804D01*
X011914Y019866D01*
X012037Y019866D01*
X012099Y019804D01*
X012037Y019619D02*
X011914Y019619D01*
X011852Y019681D01*
X011731Y019619D02*
X011607Y019742D01*
X011669Y019742D02*
X011484Y019742D01*
X011484Y019619D02*
X011484Y019989D01*
X011669Y019989D01*
X011731Y019928D01*
X011731Y019804D01*
X011669Y019742D01*
X011362Y019804D02*
X011116Y019804D01*
X011116Y019866D02*
X011239Y019989D01*
X011362Y019866D01*
X011362Y019619D01*
X011116Y019619D02*
X011116Y019866D01*
X014198Y019928D02*
X014259Y019989D01*
X014383Y019989D01*
X014445Y019928D01*
X014445Y019866D01*
X014383Y019804D01*
X014445Y019742D01*
X014445Y019681D01*
X014383Y019804D02*
X014321Y019804D01*
X015903Y020896D02*
X015965Y020896D01*
X016027Y020957D01*
X016027Y021266D01*
X015842Y021266D01*
X015780Y021204D01*
X015780Y021081D01*
X015842Y021019D01*
X016027Y021019D01*
X016148Y021019D02*
X016272Y021019D01*
X016210Y021019D02*
X016210Y021266D01*
X016148Y021266D01*
X016210Y021389D02*
X016210Y021451D01*
X016394Y021266D02*
X016517Y021266D01*
X016455Y021328D02*
X016455Y021081D01*
X016517Y021019D01*
X016639Y021081D02*
X016701Y021142D01*
X016886Y021142D01*
X016886Y021204D02*
X016886Y021019D01*
X016701Y021019D01*
X016639Y021081D01*
X016701Y021266D02*
X016824Y021266D01*
X016886Y021204D01*
X017008Y021019D02*
X017131Y021019D01*
X017069Y021019D02*
X017069Y021389D01*
X017008Y021389D01*
X017621Y021389D02*
X017745Y021389D01*
X017683Y021389D02*
X017683Y021019D01*
X017621Y021019D02*
X017745Y021019D01*
X017867Y021019D02*
X018114Y021389D01*
X018235Y021328D02*
X018235Y021081D01*
X018297Y021019D01*
X018420Y021019D01*
X018482Y021081D01*
X018482Y021328D01*
X018420Y021389D01*
X018297Y021389D01*
X018235Y021328D01*
X015658Y021019D02*
X015534Y021019D01*
X015596Y021019D02*
X015596Y021266D01*
X015534Y021266D01*
X015413Y021328D02*
X015413Y021081D01*
X015351Y021019D01*
X015166Y021019D01*
X015166Y021389D01*
X015351Y021389D01*
X015413Y021328D01*
X015596Y021389D02*
X015596Y021451D01*
X022766Y021389D02*
X022766Y021019D01*
X022951Y021019D01*
X023013Y021081D01*
X023013Y021328D01*
X022951Y021389D01*
X022766Y021389D01*
X023134Y021266D02*
X023196Y021266D01*
X023196Y021019D01*
X023134Y021019D02*
X023258Y021019D01*
X023380Y021081D02*
X023442Y021019D01*
X023627Y021019D01*
X023627Y020957D02*
X023627Y021266D01*
X023442Y021266D01*
X023380Y021204D01*
X023380Y021081D01*
X023503Y020896D02*
X023565Y020896D01*
X023627Y020957D01*
X023748Y021019D02*
X023872Y021019D01*
X023810Y021019D02*
X023810Y021266D01*
X023748Y021266D01*
X023810Y021389D02*
X023810Y021451D01*
X023994Y021266D02*
X024117Y021266D01*
X024055Y021328D02*
X024055Y021081D01*
X024117Y021019D01*
X024239Y021081D02*
X024301Y021142D01*
X024486Y021142D01*
X024486Y021204D02*
X024486Y021019D01*
X024301Y021019D01*
X024239Y021081D01*
X024301Y021266D02*
X024424Y021266D01*
X024486Y021204D01*
X024608Y021019D02*
X024731Y021019D01*
X024669Y021019D02*
X024669Y021389D01*
X024608Y021389D01*
X025221Y021389D02*
X025345Y021389D01*
X025283Y021389D02*
X025283Y021019D01*
X025221Y021019D02*
X025345Y021019D01*
X025467Y021019D02*
X025714Y021389D01*
X025835Y021328D02*
X025835Y021081D01*
X025897Y021019D01*
X026020Y021019D01*
X026082Y021081D01*
X026082Y021328D01*
X026020Y021389D01*
X025897Y021389D01*
X025835Y021328D01*
X025783Y019989D02*
X025659Y019989D01*
X025598Y019928D01*
X025783Y019989D02*
X025845Y019928D01*
X025845Y019866D01*
X025598Y019619D01*
X025845Y019619D01*
X026598Y019619D02*
X026845Y019619D01*
X026721Y019619D02*
X026721Y019989D01*
X026598Y019866D01*
X027598Y019928D02*
X027598Y019681D01*
X027845Y019928D01*
X027845Y019681D01*
X027783Y019619D01*
X027659Y019619D01*
X027598Y019681D01*
X027598Y019928D02*
X027659Y019989D01*
X027783Y019989D01*
X027845Y019928D01*
X023196Y021389D02*
X023196Y021451D01*
D12*
X017085Y017734D02*
X017085Y017274D01*
X017238Y017274D02*
X016931Y017274D01*
X016778Y017274D02*
X016625Y017427D01*
X016701Y017274D02*
X016548Y017274D01*
X016471Y017351D01*
X016471Y017658D01*
X016548Y017734D01*
X016701Y017734D01*
X016778Y017658D01*
X016778Y017351D01*
X016701Y017274D01*
X016931Y017581D02*
X017085Y017734D01*
X016954Y015984D02*
X016954Y015524D01*
X017008Y015504D02*
X017162Y015504D01*
X017238Y015427D01*
X017238Y015351D01*
X017162Y015274D01*
X017008Y015274D01*
X016931Y015351D01*
X016778Y015351D02*
X016701Y015274D01*
X016471Y015274D01*
X016471Y015734D01*
X016701Y015734D01*
X016778Y015658D01*
X016778Y015581D01*
X016701Y015504D01*
X016471Y015504D01*
X016493Y015524D02*
X016493Y015984D01*
X016340Y015831D01*
X016340Y015524D02*
X016647Y015524D01*
X016701Y015504D02*
X016778Y015427D01*
X016778Y015351D01*
X016800Y015524D02*
X017107Y015524D01*
X017008Y015504D02*
X016931Y015581D01*
X016931Y015658D01*
X017008Y015734D01*
X017162Y015734D01*
X017238Y015658D01*
X017261Y015677D02*
X017568Y015984D01*
X017622Y015734D02*
X017469Y015734D01*
X017392Y015658D01*
X017392Y015581D01*
X017469Y015504D01*
X017622Y015504D01*
X017699Y015427D01*
X017699Y015351D01*
X017622Y015274D01*
X017469Y015274D01*
X017392Y015351D01*
X017261Y015524D02*
X017261Y015984D01*
X017337Y015754D02*
X017568Y015524D01*
X017699Y015658D02*
X017622Y015734D01*
X017852Y015581D02*
X018006Y015734D01*
X018006Y015274D01*
X018159Y015274D02*
X017852Y015274D01*
X018313Y015351D02*
X018389Y015274D01*
X018543Y015274D01*
X018619Y015351D01*
X018619Y015427D01*
X018543Y015504D01*
X018466Y015504D01*
X018543Y015504D02*
X018619Y015581D01*
X018619Y015658D01*
X018543Y015734D01*
X018389Y015734D01*
X018313Y015658D01*
X018721Y015564D02*
X019181Y015564D01*
X019080Y015581D02*
X019003Y015504D01*
X018850Y015504D01*
X018773Y015581D01*
X018773Y015658D01*
X018850Y015734D01*
X019003Y015734D01*
X019080Y015658D01*
X019080Y015581D01*
X019028Y015564D02*
X018721Y015870D01*
X018951Y015640D02*
X019181Y015870D01*
X019003Y015504D02*
X019080Y015427D01*
X019080Y015351D01*
X019003Y015274D01*
X018850Y015274D01*
X018773Y015351D01*
X018773Y015427D01*
X018850Y015504D01*
X018721Y015257D02*
X019181Y015257D01*
X019181Y015410D02*
X019181Y015103D01*
X019181Y014950D02*
X019181Y014643D01*
X019181Y014796D02*
X018721Y014796D01*
X018874Y014643D01*
X018874Y015103D02*
X018721Y015257D01*
X017491Y014484D02*
X017261Y014254D01*
X017568Y014254D01*
X017491Y014024D02*
X017491Y014484D01*
X017107Y014408D02*
X017107Y014254D01*
X017031Y014177D01*
X016800Y014177D01*
X016800Y014024D02*
X016800Y014484D01*
X017031Y014484D01*
X017107Y014408D01*
X016954Y014177D02*
X017107Y014024D01*
X015449Y013484D02*
X015142Y013177D01*
X015219Y013254D02*
X015449Y013024D01*
X015142Y013024D02*
X015142Y013484D01*
X014835Y013484D02*
X014835Y013024D01*
X014701Y012977D02*
X014701Y012823D01*
X014624Y012746D01*
X014624Y012593D02*
X014701Y012516D01*
X014701Y012363D01*
X014624Y012286D01*
X014471Y012286D02*
X014394Y012439D01*
X014394Y012516D01*
X014471Y012593D01*
X014624Y012593D01*
X014394Y012746D02*
X014471Y012823D01*
X014471Y012977D01*
X014548Y013053D01*
X014624Y013053D01*
X014701Y012977D01*
X014681Y013024D02*
X014988Y013024D01*
X014568Y013024D02*
X014568Y013331D01*
X014681Y013331D02*
X014835Y013484D01*
X014701Y013667D02*
X014701Y013974D01*
X014701Y013821D02*
X014241Y013821D01*
X014394Y013667D01*
X014471Y013514D02*
X014471Y013207D01*
X014528Y013024D02*
X014221Y013024D01*
X014241Y012977D02*
X014317Y013053D01*
X014337Y013024D02*
X014568Y013024D01*
X014375Y013024D02*
X014375Y013484D01*
X014221Y013331D01*
X014261Y013331D02*
X014261Y013101D01*
X014337Y013024D01*
X014241Y012977D02*
X014241Y012823D01*
X014317Y012746D01*
X014394Y012746D01*
X014241Y012593D02*
X014241Y012286D01*
X014471Y012286D01*
X014394Y012133D02*
X014317Y012133D01*
X014241Y012056D01*
X014241Y011902D01*
X014317Y011826D01*
X014261Y011908D02*
X014337Y011984D01*
X014491Y011984D01*
X014568Y011908D01*
X014568Y011831D01*
X014261Y011524D01*
X014568Y011524D01*
X014471Y011596D02*
X014548Y011672D01*
X014624Y011672D01*
X014701Y011596D01*
X014701Y011442D01*
X014624Y011365D01*
X014548Y011365D01*
X014471Y011442D01*
X014471Y011596D01*
X014394Y011672D01*
X014317Y011672D01*
X014241Y011596D01*
X014241Y011442D01*
X014317Y011365D01*
X014394Y011365D01*
X014471Y011442D01*
X014701Y011212D02*
X014701Y010905D01*
X014701Y011058D02*
X014241Y011058D01*
X014394Y010905D01*
X014317Y010752D02*
X014471Y010752D01*
X014548Y010675D01*
X014548Y010445D01*
X014701Y010445D02*
X014241Y010445D01*
X014241Y010675D01*
X014317Y010752D01*
X014161Y010598D02*
X014161Y010291D01*
X013854Y010598D01*
X013777Y010598D01*
X013701Y010521D01*
X013701Y010368D01*
X013777Y010291D01*
X013777Y010138D02*
X013701Y010061D01*
X013701Y009908D01*
X013777Y009831D01*
X014084Y009831D01*
X014161Y009908D01*
X014161Y010061D01*
X014084Y010138D01*
X014241Y010214D02*
X014241Y010061D01*
X014317Y009984D01*
X014624Y009984D01*
X014701Y010061D01*
X014701Y010214D01*
X014624Y010291D01*
X014317Y010291D02*
X014241Y010214D01*
X014241Y009831D02*
X014701Y009831D01*
X014701Y009524D02*
X014241Y009524D01*
X014394Y009677D01*
X014241Y009831D01*
X014161Y009677D02*
X014161Y009524D01*
X014161Y009601D02*
X013701Y009601D01*
X013701Y009677D02*
X013701Y009524D01*
X013800Y009331D02*
X013954Y009484D01*
X013954Y009024D01*
X014107Y009024D02*
X013800Y009024D01*
X014261Y009101D02*
X014261Y009331D01*
X014261Y009101D02*
X014337Y009024D01*
X014568Y009024D01*
X014568Y009331D01*
X015601Y009258D02*
X015881Y009258D01*
X015881Y009165D02*
X015881Y009351D01*
X015694Y009165D02*
X015601Y009258D01*
X015651Y010016D02*
X015605Y010063D01*
X015605Y010156D01*
X015651Y010203D01*
X015698Y010203D01*
X015885Y010016D01*
X015885Y010203D01*
X015834Y010926D02*
X015881Y010973D01*
X015881Y011066D01*
X015834Y011113D01*
X015788Y011113D01*
X015741Y011066D01*
X015741Y011019D01*
X015741Y011066D02*
X015694Y011113D01*
X015648Y011113D01*
X015601Y011066D01*
X015601Y010973D01*
X015648Y010926D01*
X014701Y011826D02*
X014394Y012133D01*
X014701Y012133D02*
X014701Y011826D01*
X014107Y011908D02*
X014031Y011984D01*
X013877Y011984D01*
X013800Y011908D01*
X013800Y011601D01*
X013877Y011524D01*
X014031Y011524D01*
X014107Y011601D01*
X013181Y011414D02*
X012901Y011414D01*
X013041Y011274D01*
X013041Y011461D01*
X013800Y013024D02*
X014107Y013024D01*
X013954Y013024D02*
X013954Y013484D01*
X013800Y013331D01*
X014317Y014127D02*
X014394Y014127D01*
X014471Y014204D01*
X014471Y014358D01*
X014548Y014434D01*
X014624Y014434D01*
X014701Y014358D01*
X014701Y014204D01*
X014624Y014127D01*
X014548Y014127D01*
X014471Y014204D01*
X014471Y014358D02*
X014394Y014434D01*
X014317Y014434D01*
X014241Y014358D01*
X014241Y014204D01*
X014317Y014127D01*
X014221Y014524D02*
X014221Y014984D01*
X014451Y014984D01*
X014528Y014908D01*
X014528Y014754D01*
X014451Y014677D01*
X014221Y014677D01*
X014241Y014665D02*
X014241Y014818D01*
X014317Y014895D01*
X014624Y014588D01*
X014701Y014665D01*
X014701Y014818D01*
X014624Y014895D01*
X014317Y014895D01*
X014317Y015048D02*
X014241Y015125D01*
X014241Y015278D01*
X014317Y015355D01*
X014394Y015355D01*
X014701Y015048D01*
X014701Y015355D01*
X014701Y015509D02*
X014241Y015509D01*
X014241Y015815D01*
X014471Y015662D02*
X014471Y015509D01*
X014701Y015509D02*
X014701Y015815D01*
X014701Y015969D02*
X014241Y016276D01*
X014241Y016429D02*
X014241Y016659D01*
X014317Y016736D01*
X014624Y016736D01*
X014701Y016659D01*
X014701Y016429D01*
X014241Y016429D01*
X014241Y016890D02*
X014241Y017120D01*
X014317Y017196D01*
X014394Y017196D01*
X014471Y017120D01*
X014471Y016890D01*
X014471Y017120D02*
X014548Y017196D01*
X014624Y017196D01*
X014701Y017120D01*
X014701Y016890D01*
X014241Y016890D01*
X014471Y017350D02*
X014471Y017657D01*
X014701Y017810D02*
X014241Y017810D01*
X014701Y018117D01*
X014241Y018117D01*
X014241Y018271D02*
X014241Y018501D01*
X014317Y018578D01*
X014624Y018578D01*
X014701Y018501D01*
X014701Y018271D01*
X014241Y018271D01*
X016800Y015831D02*
X016954Y015984D01*
X014988Y014908D02*
X014988Y014831D01*
X014912Y014754D01*
X014758Y014754D01*
X014681Y014831D01*
X014681Y014908D01*
X014758Y014984D01*
X014912Y014984D01*
X014988Y014908D01*
X014912Y014754D02*
X014988Y014677D01*
X014988Y014601D01*
X014912Y014524D01*
X014758Y014524D01*
X014681Y014601D01*
X014681Y014677D01*
X014758Y014754D01*
X014624Y014588D02*
X014317Y014588D01*
X014241Y014665D01*
X014375Y014677D02*
X014528Y014524D01*
X020221Y014719D02*
X020297Y014566D01*
X020451Y014413D01*
X020451Y014643D01*
X020528Y014719D01*
X020604Y014719D01*
X020681Y014643D01*
X020681Y014489D01*
X020604Y014413D01*
X020451Y014413D01*
X020604Y014873D02*
X020604Y014950D01*
X020681Y014950D01*
X020681Y014873D01*
X020604Y014873D01*
X020528Y015103D02*
X020528Y015333D01*
X020451Y015410D01*
X020297Y015410D01*
X020221Y015333D01*
X020221Y015180D01*
X020297Y015103D01*
X020221Y015103D02*
X020221Y015333D01*
X020297Y015410D01*
X020374Y015410D01*
X020681Y015103D01*
X020681Y015410D01*
X020528Y015257D01*
X020681Y015103D02*
X020221Y015103D01*
X020221Y015563D02*
X020681Y015563D01*
X020681Y015640D02*
X020604Y015564D01*
X020528Y015563D02*
X020221Y015870D01*
X020221Y015794D02*
X020297Y015870D01*
X020374Y015870D01*
X020451Y015794D01*
X020528Y015870D01*
X020604Y015870D01*
X020681Y015794D01*
X020681Y015640D01*
X020451Y015640D02*
X020681Y015870D01*
X020451Y015794D02*
X020451Y015717D01*
X020297Y015564D02*
X020221Y015640D01*
X020221Y015794D01*
X021721Y015870D02*
X021721Y015564D01*
X021797Y015410D02*
X021951Y015410D01*
X022028Y015333D01*
X022028Y015103D01*
X022181Y015103D02*
X021721Y015103D01*
X021721Y015333D01*
X021797Y015410D01*
X022028Y015257D02*
X022181Y015410D01*
X022181Y015564D02*
X022104Y015564D01*
X021797Y015870D01*
X021721Y015870D01*
X021761Y012484D02*
X021761Y012024D01*
X021761Y012177D02*
X022068Y012484D01*
X021837Y012254D02*
X022068Y012024D01*
X021607Y012024D02*
X021300Y012024D01*
X021147Y012024D02*
X020840Y012024D01*
X020993Y012024D02*
X020993Y012484D01*
X020840Y012331D01*
X021300Y012331D02*
X021454Y012484D01*
X021454Y012024D01*
X021530Y010984D02*
X021377Y010984D01*
X021300Y010908D01*
X021300Y010984D02*
X021531Y010984D01*
X021607Y010908D01*
X021530Y010984D01*
X021607Y010908D02*
X021607Y010831D01*
X021300Y010524D01*
X021607Y010524D01*
X021454Y010677D01*
X021531Y010677D02*
X021300Y010677D01*
X021300Y010524D02*
X021300Y010984D01*
X021607Y010908D02*
X021607Y010754D01*
X021531Y010677D01*
X021761Y010677D02*
X022068Y010984D01*
X022068Y010908D02*
X021991Y010984D01*
X021837Y010984D01*
X021761Y010908D01*
X021761Y010984D02*
X021761Y010524D01*
X022068Y010831D01*
X022068Y010908D01*
X021837Y010754D02*
X022068Y010524D01*
X021761Y010524D01*
X021147Y010524D02*
X021070Y010524D01*
X021070Y010601D01*
X021147Y010601D01*
X021147Y010524D01*
X020917Y010601D02*
X020917Y010677D01*
X020840Y010754D01*
X020610Y010754D01*
X020610Y010601D01*
X020686Y010524D01*
X020840Y010524D01*
X020917Y010601D01*
X020763Y010908D02*
X020610Y010754D01*
X020763Y010908D02*
X020917Y010984D01*
X021300Y009484D02*
X021531Y009484D01*
X021607Y009408D01*
X021607Y009254D01*
X021531Y009177D01*
X021300Y009177D01*
X021300Y009024D02*
X021300Y009484D01*
X021454Y009177D02*
X021607Y009024D01*
X021761Y009101D02*
X021837Y009024D01*
X021991Y009024D01*
X022068Y009101D01*
X022068Y009177D01*
X021991Y009254D01*
X021761Y009254D01*
X021761Y009101D01*
X021761Y009254D02*
X021914Y009408D01*
X022068Y009484D01*
X025221Y009098D02*
X025374Y008945D01*
X025221Y009098D02*
X025681Y009098D01*
X025681Y008945D02*
X025681Y009252D01*
X025681Y008791D02*
X025681Y008484D01*
X025681Y008331D02*
X025528Y008177D01*
X025528Y008254D02*
X025528Y008024D01*
X025681Y008024D02*
X025221Y008024D01*
X025221Y008254D01*
X025297Y008331D01*
X025451Y008331D01*
X025528Y008254D01*
X025374Y008484D02*
X025221Y008638D01*
X025681Y008638D01*
X026721Y008254D02*
X026721Y008101D01*
X026797Y008024D01*
X027104Y008024D01*
X026797Y008331D01*
X027104Y008331D01*
X027181Y008254D01*
X027181Y008101D01*
X027104Y008024D01*
X026797Y008331D02*
X026721Y008254D01*
X025681Y006252D02*
X025681Y005945D01*
X025374Y006252D01*
X025297Y006252D01*
X025221Y006175D01*
X025221Y006021D01*
X025297Y005945D01*
X025221Y005638D02*
X025681Y005638D01*
X025681Y005791D02*
X025681Y005484D01*
X025681Y005331D02*
X025528Y005177D01*
X025528Y005254D02*
X025528Y005024D01*
X025681Y005024D02*
X025221Y005024D01*
X025221Y005254D01*
X025297Y005331D01*
X025451Y005331D01*
X025528Y005254D01*
X025374Y005484D02*
X025221Y005638D01*
X026721Y005254D02*
X026721Y005101D01*
X026797Y005024D01*
X027104Y005024D01*
X026797Y005331D01*
X027104Y005331D01*
X027181Y005254D01*
X027181Y005101D01*
X027104Y005024D01*
X026797Y005331D02*
X026721Y005254D01*
X018568Y004984D02*
X018261Y004984D01*
X018261Y004754D01*
X018414Y004831D01*
X018491Y004831D01*
X018568Y004754D01*
X018568Y004601D01*
X018491Y004524D01*
X018337Y004524D01*
X018261Y004601D01*
X018107Y004524D02*
X017954Y004677D01*
X018031Y004677D02*
X017800Y004677D01*
X017800Y004524D02*
X017800Y004984D01*
X018031Y004984D01*
X018107Y004908D01*
X018107Y004754D01*
X018031Y004677D01*
X016949Y004677D02*
X016949Y004601D01*
X016872Y004524D01*
X016719Y004524D01*
X016642Y004601D01*
X016642Y004677D02*
X016949Y004984D01*
X016949Y004908D02*
X016872Y004984D01*
X016719Y004984D01*
X016642Y004908D01*
X016642Y004984D02*
X016642Y004524D01*
X016488Y004524D02*
X016181Y004524D01*
X016488Y004524D01*
X016335Y004524D02*
X016335Y004984D01*
X016181Y004831D01*
X016335Y004984D01*
X016335Y004524D01*
X016028Y004524D02*
X015875Y004677D01*
X015951Y004677D02*
X015721Y004677D01*
X015721Y004524D02*
X015721Y004984D01*
X015951Y004984D01*
X016028Y004908D01*
X016028Y004754D01*
X015951Y004677D01*
X015875Y004524D02*
X015875Y004984D01*
X015721Y004831D01*
X015721Y004524D02*
X016028Y004524D01*
X016719Y004754D02*
X016949Y004524D01*
X016949Y004677D02*
X016872Y004754D01*
X016795Y004754D01*
X016872Y004754D02*
X016949Y004831D01*
X016949Y004908D01*
X017186Y006024D02*
X017340Y006024D01*
X017417Y006101D01*
X017417Y006177D01*
X017340Y006254D01*
X017110Y006254D01*
X017110Y006101D01*
X017186Y006024D01*
X017110Y006254D02*
X017263Y006408D01*
X017417Y006484D01*
X017800Y006408D02*
X017877Y006484D01*
X018030Y006484D01*
X018107Y006408D01*
X018107Y006331D01*
X017800Y006024D01*
X018107Y006024D01*
X018261Y006024D02*
X018261Y006484D01*
X018337Y006254D02*
X018568Y006024D01*
X018261Y006177D02*
X018568Y006484D01*
X017647Y006101D02*
X017647Y006024D01*
X017570Y006024D01*
X017570Y006101D01*
X017647Y006101D01*
X016488Y006024D02*
X016181Y006024D01*
X016028Y006024D02*
X015875Y006177D01*
X015951Y006177D02*
X015721Y006177D01*
X015721Y006024D02*
X015721Y006484D01*
X015951Y006484D01*
X016028Y006408D01*
X016028Y006254D01*
X015951Y006177D01*
X016181Y006331D02*
X016335Y006484D01*
X016335Y006024D01*
X014217Y005743D02*
X014217Y005634D01*
X014109Y005526D01*
X014000Y005526D01*
X014000Y005960D01*
X014217Y005743D01*
X014000Y005960D02*
X013892Y005960D01*
X013783Y005851D01*
X013783Y005743D01*
X014000Y005526D01*
X012994Y006532D02*
X012668Y006858D01*
X012831Y007020D01*
X012940Y007020D01*
X013048Y006912D01*
X013048Y006803D01*
X012885Y006641D01*
X012994Y006749D02*
X013211Y006749D01*
X013265Y006912D02*
X013374Y006912D01*
X013482Y007020D01*
X013482Y007129D01*
X013265Y007346D01*
X013157Y007346D01*
X013048Y007237D01*
X013048Y007129D01*
X013102Y007075D01*
X013211Y007075D01*
X013374Y007237D01*
X013800Y007601D02*
X013877Y007524D01*
X014031Y007524D01*
X014107Y007601D01*
X014261Y007524D02*
X014568Y007524D01*
X014414Y007524D02*
X014414Y007984D01*
X014261Y007831D01*
X014107Y007908D02*
X014031Y007984D01*
X013877Y007984D01*
X013800Y007908D01*
X013800Y007601D01*
X015798Y003484D02*
X015951Y003484D01*
X016028Y003408D01*
X015721Y003101D01*
X015798Y003024D01*
X015951Y003024D01*
X016028Y003101D01*
X016028Y003408D01*
X015798Y003484D02*
X015721Y003408D01*
X015721Y003101D01*
X025221Y011024D02*
X025221Y011254D01*
X025297Y011331D01*
X025451Y011331D01*
X025528Y011254D01*
X025528Y011024D01*
X025681Y011024D02*
X025221Y011024D01*
X025528Y011177D02*
X025681Y011331D01*
X025681Y011484D02*
X025681Y011791D01*
X025681Y011638D02*
X025221Y011638D01*
X025374Y011484D01*
X025297Y011945D02*
X025221Y012021D01*
X025221Y012175D01*
X025297Y012252D01*
X025604Y011945D01*
X025681Y012021D01*
X025681Y012175D01*
X025604Y012252D01*
X025297Y012252D01*
X025297Y011945D02*
X025604Y011945D01*
X026721Y011254D02*
X026797Y011331D01*
X027104Y011024D01*
X027181Y011101D01*
X027181Y011254D01*
X027104Y011331D01*
X026797Y011331D01*
X026721Y011254D02*
X026721Y011101D01*
X026797Y011024D01*
X027104Y011024D01*
D13*
X014901Y011794D02*
X014901Y009214D01*
X013501Y009214D01*
X013501Y011794D01*
X014901Y011794D01*
D14*
X028451Y012004D02*
X028451Y011004D01*
X028451Y010004D01*
X028451Y009004D01*
X029451Y009004D01*
X029451Y008004D01*
X029451Y007004D01*
X029451Y006004D01*
X028451Y006004D01*
X028451Y005004D01*
X028451Y004004D01*
X028451Y003004D01*
X029451Y003004D01*
X029451Y004004D01*
X029451Y005004D01*
X029451Y006004D01*
X028451Y006004D01*
X028451Y007004D01*
X029451Y007004D01*
X028451Y007004D02*
X028451Y008004D01*
X029451Y008004D01*
X028451Y008004D02*
X028451Y009004D01*
X029451Y009004D01*
X029451Y010004D01*
X029451Y011004D01*
X029451Y012004D01*
X028451Y012004D01*
X029451Y012004D01*
X029451Y013004D01*
X029451Y014004D01*
X029451Y015004D01*
X028451Y015004D01*
X028451Y014004D01*
X028451Y013004D01*
X028451Y012004D01*
X028451Y013004D02*
X029451Y013004D01*
X029451Y014004D02*
X028451Y014004D01*
X028451Y011004D02*
X029451Y011004D01*
X029451Y010004D02*
X028451Y010004D01*
X028451Y005004D02*
X029451Y005004D01*
X029451Y004004D02*
X028451Y004004D01*
D15*
X029701Y004504D02*
X031951Y004504D01*
X031951Y003504D02*
X029701Y003504D01*
X029701Y005504D02*
X031951Y005504D01*
X031951Y006504D02*
X029701Y006504D01*
X029701Y007504D02*
X031951Y007504D01*
X031951Y008504D02*
X029701Y008504D01*
X029701Y009504D02*
X031951Y009504D01*
X031951Y010504D02*
X029701Y010504D01*
X029701Y011504D02*
X031951Y011504D01*
X031951Y012504D02*
X029701Y012504D01*
X029701Y013504D02*
X031951Y013504D01*
X031951Y014504D02*
X029701Y014504D01*
D16*
X029551Y014504D03*
X029551Y013504D03*
X029551Y012504D03*
X029551Y011504D03*
X029551Y010504D03*
X029551Y009504D03*
X029551Y008504D03*
X029551Y007504D03*
X029551Y006504D03*
X029551Y005504D03*
X029551Y004504D03*
X029551Y003504D03*
D17*
X028872Y006279D02*
X028872Y006729D01*
X028647Y006504D01*
X028947Y006504D01*
X028487Y006504D02*
X028412Y006429D01*
X028186Y006429D01*
X028186Y006279D02*
X028186Y006729D01*
X028412Y006729D01*
X028487Y006654D01*
X028487Y006504D01*
X028026Y006729D02*
X027876Y006729D01*
X027951Y006729D02*
X027951Y006354D01*
X027876Y006279D01*
X027801Y006279D01*
X027726Y006354D01*
X027801Y009279D02*
X027876Y009279D01*
X027951Y009354D01*
X027951Y009729D01*
X027876Y009729D02*
X028026Y009729D01*
X028186Y009729D02*
X028412Y009729D01*
X028487Y009654D01*
X028487Y009504D01*
X028412Y009429D01*
X028186Y009429D01*
X028186Y009279D02*
X028186Y009729D01*
X028647Y009654D02*
X028722Y009729D01*
X028872Y009729D01*
X028947Y009654D01*
X028947Y009579D01*
X028872Y009504D01*
X028947Y009429D01*
X028947Y009354D01*
X028872Y009279D01*
X028722Y009279D01*
X028647Y009354D01*
X028797Y009504D02*
X028872Y009504D01*
X027801Y009279D02*
X027726Y009354D01*
X027801Y012279D02*
X027876Y012279D01*
X027951Y012354D01*
X027951Y012729D01*
X027876Y012729D02*
X028026Y012729D01*
X028186Y012729D02*
X028412Y012729D01*
X028487Y012654D01*
X028487Y012504D01*
X028412Y012429D01*
X028186Y012429D01*
X028186Y012279D02*
X028186Y012729D01*
X028647Y012654D02*
X028722Y012729D01*
X028872Y012729D01*
X028947Y012654D01*
X028947Y012579D01*
X028647Y012279D01*
X028947Y012279D01*
X027801Y012279D02*
X027726Y012354D01*
X027801Y015279D02*
X027876Y015279D01*
X027951Y015354D01*
X027951Y015729D01*
X027876Y015729D02*
X028026Y015729D01*
X028186Y015729D02*
X028412Y015729D01*
X028487Y015654D01*
X028487Y015504D01*
X028412Y015429D01*
X028186Y015429D01*
X028186Y015279D02*
X028186Y015729D01*
X028647Y015579D02*
X028797Y015729D01*
X028797Y015279D01*
X028647Y015279D02*
X028947Y015279D01*
X027801Y015279D02*
X027726Y015354D01*
D18*
X028251Y014504D03*
X028251Y013504D03*
X028251Y012504D03*
X028251Y011504D03*
X028251Y010504D03*
X028251Y009504D03*
X028251Y008504D03*
X028251Y007504D03*
X028251Y006504D03*
X028251Y005504D03*
X028251Y004504D03*
X028251Y003504D03*
M02*
