%
M48
M72
T01C0.0394
T02C0.0472
T03C0.1181
T04C0.1575
T05C0.2362
%
T01
X15701Y1504
X16701Y1504
X17701Y1504
X18701Y1504
X19701Y1504
X20701Y1504
X22701Y1504
X23701Y1504
X24701Y1504
X25701Y1504
X26701Y1504
X27701Y1504
X22079Y8474
X21292Y8474
X20504Y8474
X19717Y8474
X20111Y13533
X20898Y13533
X21685Y13533
X22473Y13533
X22701Y20504
X21701Y20504
X20701Y20504
X19101Y20504
X18101Y20504
X17101Y20504
X16101Y20504
X15101Y20504
X14101Y20504
X13101Y20504
X12101Y20504
X23701Y20504
X24701Y20504
X25701Y20504
X26701Y20504
X27701Y20504
T02
X13457Y5984
X14481Y5984
X15504Y5984
X14992Y5079
X13969Y5079
X25898Y5984
X26922Y5984
X27945Y5984
X27433Y5079
X26410Y5079
X26922Y16024
X25898Y16024
X26410Y16929
X27433Y16929
X27945Y16024
X15504Y16024
X14481Y16024
X13457Y16024
X13969Y16929
X14992Y16929
T03
X20701Y5492
T04
X20701Y16516
T05
X20701Y11004
M30
