G75*
G70*
%OFA0B0*%
%FSLAX24Y24*%
%IPPOS*%
%LPD*%
%AMOC8*
5,1,8,0,0,1.08239X$1,22.5*
%
%ADD10C,0.0000*%
%ADD11C,0.0030*%
%ADD12C,0.0040*%
%ADD13C,0.0080*%
%ADD14C,0.0070*%
%ADD15C,0.0060*%
%ADD16C,0.0050*%
D10*
X007701Y000504D02*
X007701Y021504D01*
X030201Y021504D01*
X030201Y000504D01*
X007701Y000504D01*
X020110Y005492D02*
X020112Y005540D01*
X020118Y005588D01*
X020128Y005635D01*
X020141Y005681D01*
X020159Y005726D01*
X020179Y005770D01*
X020204Y005812D01*
X020232Y005851D01*
X020262Y005888D01*
X020296Y005922D01*
X020333Y005954D01*
X020371Y005983D01*
X020412Y006008D01*
X020455Y006030D01*
X020500Y006048D01*
X020546Y006062D01*
X020593Y006073D01*
X020641Y006080D01*
X020689Y006083D01*
X020737Y006082D01*
X020785Y006077D01*
X020833Y006068D01*
X020879Y006056D01*
X020924Y006039D01*
X020968Y006019D01*
X021010Y005996D01*
X021050Y005969D01*
X021088Y005939D01*
X021123Y005906D01*
X021155Y005870D01*
X021185Y005832D01*
X021211Y005791D01*
X021233Y005748D01*
X021253Y005704D01*
X021268Y005659D01*
X021280Y005612D01*
X021288Y005564D01*
X021292Y005516D01*
X021292Y005468D01*
X021288Y005420D01*
X021280Y005372D01*
X021268Y005325D01*
X021253Y005280D01*
X021233Y005236D01*
X021211Y005193D01*
X021185Y005152D01*
X021155Y005114D01*
X021123Y005078D01*
X021088Y005045D01*
X021050Y005015D01*
X021010Y004988D01*
X020968Y004965D01*
X020924Y004945D01*
X020879Y004928D01*
X020833Y004916D01*
X020785Y004907D01*
X020737Y004902D01*
X020689Y004901D01*
X020641Y004904D01*
X020593Y004911D01*
X020546Y004922D01*
X020500Y004936D01*
X020455Y004954D01*
X020412Y004976D01*
X020371Y005001D01*
X020333Y005030D01*
X020296Y005062D01*
X020262Y005096D01*
X020232Y005133D01*
X020204Y005172D01*
X020179Y005214D01*
X020159Y005258D01*
X020141Y005303D01*
X020128Y005349D01*
X020118Y005396D01*
X020112Y005444D01*
X020110Y005492D01*
X019520Y011004D02*
X019522Y011073D01*
X019528Y011141D01*
X019538Y011209D01*
X019552Y011276D01*
X019570Y011343D01*
X019591Y011408D01*
X019617Y011472D01*
X019646Y011534D01*
X019678Y011594D01*
X019714Y011653D01*
X019754Y011709D01*
X019796Y011763D01*
X019842Y011814D01*
X019891Y011863D01*
X019942Y011909D01*
X019996Y011951D01*
X020052Y011991D01*
X020110Y012027D01*
X020171Y012059D01*
X020233Y012088D01*
X020297Y012114D01*
X020362Y012135D01*
X020429Y012153D01*
X020496Y012167D01*
X020564Y012177D01*
X020632Y012183D01*
X020701Y012185D01*
X020770Y012183D01*
X020838Y012177D01*
X020906Y012167D01*
X020973Y012153D01*
X021040Y012135D01*
X021105Y012114D01*
X021169Y012088D01*
X021231Y012059D01*
X021291Y012027D01*
X021350Y011991D01*
X021406Y011951D01*
X021460Y011909D01*
X021511Y011863D01*
X021560Y011814D01*
X021606Y011763D01*
X021648Y011709D01*
X021688Y011653D01*
X021724Y011594D01*
X021756Y011534D01*
X021785Y011472D01*
X021811Y011408D01*
X021832Y011343D01*
X021850Y011276D01*
X021864Y011209D01*
X021874Y011141D01*
X021880Y011073D01*
X021882Y011004D01*
X021880Y010935D01*
X021874Y010867D01*
X021864Y010799D01*
X021850Y010732D01*
X021832Y010665D01*
X021811Y010600D01*
X021785Y010536D01*
X021756Y010474D01*
X021724Y010413D01*
X021688Y010355D01*
X021648Y010299D01*
X021606Y010245D01*
X021560Y010194D01*
X021511Y010145D01*
X021460Y010099D01*
X021406Y010057D01*
X021350Y010017D01*
X021292Y009981D01*
X021231Y009949D01*
X021169Y009920D01*
X021105Y009894D01*
X021040Y009873D01*
X020973Y009855D01*
X020906Y009841D01*
X020838Y009831D01*
X020770Y009825D01*
X020701Y009823D01*
X020632Y009825D01*
X020564Y009831D01*
X020496Y009841D01*
X020429Y009855D01*
X020362Y009873D01*
X020297Y009894D01*
X020233Y009920D01*
X020171Y009949D01*
X020110Y009981D01*
X020052Y010017D01*
X019996Y010057D01*
X019942Y010099D01*
X019891Y010145D01*
X019842Y010194D01*
X019796Y010245D01*
X019754Y010299D01*
X019714Y010355D01*
X019678Y010413D01*
X019646Y010474D01*
X019617Y010536D01*
X019591Y010600D01*
X019570Y010665D01*
X019552Y010732D01*
X019538Y010799D01*
X019528Y010867D01*
X019522Y010935D01*
X019520Y011004D01*
X019914Y016516D02*
X019916Y016572D01*
X019922Y016627D01*
X019932Y016681D01*
X019945Y016735D01*
X019963Y016788D01*
X019984Y016839D01*
X020008Y016889D01*
X020036Y016937D01*
X020068Y016983D01*
X020102Y017027D01*
X020140Y017068D01*
X020180Y017106D01*
X020223Y017141D01*
X020268Y017173D01*
X020316Y017202D01*
X020365Y017228D01*
X020416Y017250D01*
X020468Y017268D01*
X020522Y017282D01*
X020577Y017293D01*
X020632Y017300D01*
X020687Y017303D01*
X020743Y017302D01*
X020798Y017297D01*
X020853Y017288D01*
X020907Y017276D01*
X020960Y017259D01*
X021012Y017239D01*
X021062Y017215D01*
X021110Y017188D01*
X021157Y017158D01*
X021201Y017124D01*
X021243Y017087D01*
X021281Y017047D01*
X021318Y017005D01*
X021351Y016960D01*
X021380Y016914D01*
X021407Y016865D01*
X021429Y016814D01*
X021449Y016762D01*
X021464Y016708D01*
X021476Y016654D01*
X021484Y016599D01*
X021488Y016544D01*
X021488Y016488D01*
X021484Y016433D01*
X021476Y016378D01*
X021464Y016324D01*
X021449Y016270D01*
X021429Y016218D01*
X021407Y016167D01*
X021380Y016118D01*
X021351Y016072D01*
X021318Y016027D01*
X021281Y015985D01*
X021243Y015945D01*
X021201Y015908D01*
X021157Y015874D01*
X021110Y015844D01*
X021062Y015817D01*
X021012Y015793D01*
X020960Y015773D01*
X020907Y015756D01*
X020853Y015744D01*
X020798Y015735D01*
X020743Y015730D01*
X020687Y015729D01*
X020632Y015732D01*
X020577Y015739D01*
X020522Y015750D01*
X020468Y015764D01*
X020416Y015782D01*
X020365Y015804D01*
X020316Y015830D01*
X020268Y015859D01*
X020223Y015891D01*
X020180Y015926D01*
X020140Y015964D01*
X020102Y016005D01*
X020068Y016049D01*
X020036Y016095D01*
X020008Y016143D01*
X019984Y016193D01*
X019963Y016244D01*
X019945Y016297D01*
X019932Y016351D01*
X019922Y016405D01*
X019916Y016460D01*
X019914Y016516D01*
D11*
X020598Y019619D02*
X020598Y019681D01*
X020845Y019928D01*
X020845Y019989D01*
X020598Y019989D01*
X021598Y019804D02*
X021598Y019681D01*
X021659Y019619D01*
X021783Y019619D01*
X021845Y019681D01*
X021845Y019742D01*
X021783Y019804D01*
X021598Y019804D01*
X021721Y019928D01*
X021845Y019989D01*
X022598Y019989D02*
X022598Y019804D01*
X022721Y019866D01*
X022783Y019866D01*
X022845Y019804D01*
X022845Y019681D01*
X022783Y019619D01*
X022659Y019619D01*
X022598Y019681D01*
X022598Y019989D02*
X022845Y019989D01*
X023598Y019804D02*
X023845Y019804D01*
X023783Y019619D02*
X023783Y019989D01*
X023598Y019804D01*
X024598Y019681D02*
X024659Y019619D01*
X024783Y019619D01*
X024845Y019681D01*
X024845Y019742D01*
X024783Y019804D01*
X024721Y019804D01*
X024783Y019804D02*
X024845Y019866D01*
X024845Y019928D01*
X024783Y019989D01*
X024659Y019989D01*
X024598Y019928D01*
X025598Y019928D02*
X025659Y019989D01*
X025783Y019989D01*
X025845Y019928D01*
X025845Y019866D01*
X025598Y019619D01*
X025845Y019619D01*
X026598Y019619D02*
X026845Y019619D01*
X026721Y019619D02*
X026721Y019989D01*
X026598Y019866D01*
X027598Y019928D02*
X027598Y019681D01*
X027845Y019928D01*
X027845Y019681D01*
X027783Y019619D01*
X027659Y019619D01*
X027598Y019681D01*
X027598Y019928D02*
X027659Y019989D01*
X027783Y019989D01*
X027845Y019928D01*
X026082Y021081D02*
X026082Y021328D01*
X026020Y021389D01*
X025897Y021389D01*
X025835Y021328D01*
X025835Y021081D01*
X025897Y021019D01*
X026020Y021019D01*
X026082Y021081D01*
X025714Y021389D02*
X025467Y021019D01*
X025345Y021019D02*
X025221Y021019D01*
X025283Y021019D02*
X025283Y021389D01*
X025221Y021389D02*
X025345Y021389D01*
X024669Y021389D02*
X024669Y021019D01*
X024608Y021019D02*
X024731Y021019D01*
X024486Y021019D02*
X024301Y021019D01*
X024239Y021081D01*
X024301Y021142D01*
X024486Y021142D01*
X024486Y021204D02*
X024486Y021019D01*
X024486Y021204D02*
X024424Y021266D01*
X024301Y021266D01*
X024117Y021266D02*
X023994Y021266D01*
X024055Y021328D02*
X024055Y021081D01*
X024117Y021019D01*
X023872Y021019D02*
X023748Y021019D01*
X023810Y021019D02*
X023810Y021266D01*
X023748Y021266D01*
X023627Y021266D02*
X023442Y021266D01*
X023380Y021204D01*
X023380Y021081D01*
X023442Y021019D01*
X023627Y021019D01*
X023627Y020957D02*
X023627Y021266D01*
X023810Y021389D02*
X023810Y021451D01*
X023196Y021451D02*
X023196Y021389D01*
X023196Y021266D02*
X023196Y021019D01*
X023134Y021019D02*
X023258Y021019D01*
X023013Y021081D02*
X023013Y021328D01*
X022951Y021389D01*
X022766Y021389D01*
X022766Y021019D01*
X022951Y021019D01*
X023013Y021081D01*
X023134Y021266D02*
X023196Y021266D01*
X023503Y020896D02*
X023565Y020896D01*
X023627Y020957D01*
X024608Y021389D02*
X024669Y021389D01*
X019245Y019928D02*
X019245Y019866D01*
X019183Y019804D01*
X019059Y019804D01*
X018998Y019866D01*
X018998Y019928D01*
X019059Y019989D01*
X019183Y019989D01*
X019245Y019928D01*
X019183Y019804D02*
X019245Y019742D01*
X019245Y019681D01*
X019183Y019619D01*
X019059Y019619D01*
X018998Y019681D01*
X018998Y019742D01*
X019059Y019804D01*
X018245Y019804D02*
X018059Y019804D01*
X017998Y019866D01*
X017998Y019928D01*
X018059Y019989D01*
X018183Y019989D01*
X018245Y019928D01*
X018245Y019681D01*
X018183Y019619D01*
X018059Y019619D01*
X017998Y019681D01*
X017445Y019681D02*
X017445Y019928D01*
X017198Y019681D01*
X017259Y019619D01*
X017383Y019619D01*
X017445Y019681D01*
X017198Y019681D02*
X017198Y019928D01*
X017259Y019989D01*
X017383Y019989D01*
X017445Y019928D01*
X017076Y019619D02*
X016829Y019619D01*
X016953Y019619D02*
X016953Y019989D01*
X016829Y019866D01*
X016445Y019619D02*
X016198Y019619D01*
X016076Y019619D02*
X015829Y019619D01*
X015953Y019619D02*
X015953Y019989D01*
X015829Y019866D01*
X016198Y019866D02*
X016321Y019989D01*
X016321Y019619D01*
X015445Y019619D02*
X015198Y019619D01*
X015445Y019866D01*
X015445Y019928D01*
X015383Y019989D01*
X015259Y019989D01*
X015198Y019928D01*
X014953Y019989D02*
X014953Y019619D01*
X015076Y019619D02*
X014829Y019619D01*
X014829Y019866D02*
X014953Y019989D01*
X014445Y019928D02*
X014445Y019866D01*
X014383Y019804D01*
X014445Y019742D01*
X014445Y019681D01*
X014383Y019619D01*
X014259Y019619D01*
X014198Y019681D01*
X014076Y019619D02*
X013829Y019619D01*
X013953Y019619D02*
X013953Y019989D01*
X013829Y019866D01*
X013595Y019866D02*
X013409Y019866D01*
X013348Y019804D01*
X013348Y019681D01*
X013409Y019619D01*
X013595Y019619D01*
X013595Y019989D01*
X013226Y019804D02*
X013226Y019619D01*
X013226Y019804D02*
X013165Y019866D01*
X012979Y019866D01*
X012979Y019619D01*
X012858Y019619D02*
X012673Y019619D01*
X012611Y019681D01*
X012611Y019804D01*
X012673Y019866D01*
X012858Y019866D01*
X012858Y019557D01*
X012796Y019496D01*
X012735Y019496D01*
X012282Y019619D02*
X012282Y019928D01*
X012344Y019989D01*
X012344Y019804D02*
X012221Y019804D01*
X012099Y019804D02*
X012099Y019742D01*
X011852Y019742D01*
X011852Y019681D02*
X011852Y019804D01*
X011914Y019866D01*
X012037Y019866D01*
X012099Y019804D01*
X012037Y019619D02*
X011914Y019619D01*
X011852Y019681D01*
X011731Y019619D02*
X011607Y019742D01*
X011669Y019742D02*
X011484Y019742D01*
X011484Y019619D02*
X011484Y019989D01*
X011669Y019989D01*
X011731Y019928D01*
X011731Y019804D01*
X011669Y019742D01*
X011362Y019804D02*
X011116Y019804D01*
X011116Y019866D02*
X011239Y019989D01*
X011362Y019866D01*
X011362Y019619D01*
X011116Y019619D02*
X011116Y019866D01*
X014198Y019928D02*
X014259Y019989D01*
X014383Y019989D01*
X014445Y019928D01*
X014383Y019804D02*
X014321Y019804D01*
X015903Y020896D02*
X015965Y020896D01*
X016027Y020957D01*
X016027Y021266D01*
X015842Y021266D01*
X015780Y021204D01*
X015780Y021081D01*
X015842Y021019D01*
X016027Y021019D01*
X016148Y021019D02*
X016272Y021019D01*
X016210Y021019D02*
X016210Y021266D01*
X016148Y021266D01*
X016210Y021389D02*
X016210Y021451D01*
X016394Y021266D02*
X016517Y021266D01*
X016455Y021328D02*
X016455Y021081D01*
X016517Y021019D01*
X016639Y021081D02*
X016701Y021142D01*
X016886Y021142D01*
X016886Y021204D02*
X016886Y021019D01*
X016701Y021019D01*
X016639Y021081D01*
X016701Y021266D02*
X016824Y021266D01*
X016886Y021204D01*
X017008Y021019D02*
X017131Y021019D01*
X017069Y021019D02*
X017069Y021389D01*
X017008Y021389D01*
X017621Y021389D02*
X017745Y021389D01*
X017683Y021389D02*
X017683Y021019D01*
X017621Y021019D02*
X017745Y021019D01*
X017867Y021019D02*
X018114Y021389D01*
X018235Y021328D02*
X018235Y021081D01*
X018297Y021019D01*
X018420Y021019D01*
X018482Y021081D01*
X018482Y021328D01*
X018420Y021389D01*
X018297Y021389D01*
X018235Y021328D01*
X015658Y021019D02*
X015534Y021019D01*
X015596Y021019D02*
X015596Y021266D01*
X015534Y021266D01*
X015413Y021328D02*
X015413Y021081D01*
X015351Y021019D01*
X015166Y021019D01*
X015166Y021389D01*
X015351Y021389D01*
X015413Y021328D01*
X015596Y021389D02*
X015596Y021451D01*
X015566Y002389D02*
X015442Y002389D01*
X015380Y002328D01*
X015380Y002266D01*
X015442Y002204D01*
X015566Y002204D01*
X015627Y002142D01*
X015627Y002081D01*
X015566Y002019D01*
X015442Y002019D01*
X015380Y002081D01*
X015259Y002019D02*
X015136Y002142D01*
X015197Y002142D02*
X015012Y002142D01*
X015012Y002019D02*
X015012Y002389D01*
X015197Y002389D01*
X015259Y002328D01*
X015259Y002204D01*
X015197Y002142D01*
X015566Y002389D02*
X015627Y002328D01*
X015749Y002389D02*
X015996Y002389D01*
X015872Y002389D02*
X015872Y002019D01*
X016398Y002081D02*
X016460Y002019D01*
X016583Y002019D01*
X016645Y002081D01*
X016645Y002142D01*
X016583Y002204D01*
X016522Y002204D01*
X016583Y002204D02*
X016645Y002266D01*
X016645Y002328D01*
X016583Y002389D01*
X016460Y002389D01*
X016398Y002328D01*
X016766Y002266D02*
X016890Y002019D01*
X017013Y002266D01*
X017498Y002204D02*
X017498Y002389D01*
X017745Y002389D01*
X017683Y002266D02*
X017745Y002204D01*
X017745Y002081D01*
X017683Y002019D01*
X017560Y002019D01*
X017498Y002081D01*
X017498Y002204D02*
X017622Y002266D01*
X017683Y002266D01*
X017866Y002266D02*
X017990Y002019D01*
X018113Y002266D01*
X018770Y002328D02*
X018770Y002081D01*
X018832Y002019D01*
X018955Y002019D01*
X019017Y002081D01*
X019017Y002204D01*
X018894Y002204D01*
X019017Y002328D02*
X018955Y002389D01*
X018832Y002389D01*
X018770Y002328D01*
X019138Y002266D02*
X019138Y002019D01*
X019138Y002266D02*
X019324Y002266D01*
X019385Y002204D01*
X019385Y002019D01*
X019507Y002081D02*
X019507Y002204D01*
X019568Y002266D01*
X019754Y002266D01*
X019754Y002389D02*
X019754Y002019D01*
X019568Y002019D01*
X019507Y002081D01*
X020348Y002142D02*
X020472Y002019D01*
X020595Y002142D01*
X020595Y002389D01*
X020716Y002266D02*
X020778Y002266D01*
X020778Y002019D01*
X020716Y002019D02*
X020840Y002019D01*
X020962Y002019D02*
X020962Y002266D01*
X021147Y002266D01*
X021209Y002204D01*
X021209Y002019D01*
X020778Y002389D02*
X020778Y002451D01*
X020348Y002389D02*
X020348Y002142D01*
X022566Y002081D02*
X022813Y002328D01*
X022813Y002081D01*
X022751Y002019D01*
X022628Y002019D01*
X022566Y002081D01*
X022566Y002328D01*
X022628Y002389D01*
X022751Y002389D01*
X022813Y002328D01*
X023566Y002266D02*
X023690Y002389D01*
X023690Y002019D01*
X023813Y002019D02*
X023566Y002019D01*
X024566Y002019D02*
X024813Y002266D01*
X024813Y002328D01*
X024751Y002389D01*
X024628Y002389D01*
X024566Y002328D01*
X024566Y002019D02*
X024813Y002019D01*
X025566Y002081D02*
X025628Y002019D01*
X025751Y002019D01*
X025813Y002081D01*
X025813Y002142D01*
X025751Y002204D01*
X025690Y002204D01*
X025751Y002204D02*
X025813Y002266D01*
X025813Y002328D01*
X025751Y002389D01*
X025628Y002389D01*
X025566Y002328D01*
X026566Y002204D02*
X026813Y002204D01*
X026751Y002019D02*
X026751Y002389D01*
X026566Y002204D01*
X027566Y002204D02*
X027690Y002266D01*
X027751Y002266D01*
X027813Y002204D01*
X027813Y002081D01*
X027751Y002019D01*
X027628Y002019D01*
X027566Y002081D01*
X027566Y002204D02*
X027566Y002389D01*
X027813Y002389D01*
X026906Y000948D02*
X026968Y000886D01*
X026968Y000701D01*
X026721Y000701D02*
X026721Y000948D01*
X026906Y000948D01*
X026599Y001071D02*
X026475Y001071D01*
X026537Y001071D02*
X026537Y000701D01*
X026475Y000701D02*
X026599Y000701D01*
X025986Y000701D02*
X025801Y000701D01*
X025739Y000763D01*
X025739Y000886D01*
X025801Y000948D01*
X025986Y000948D01*
X025986Y000639D01*
X025924Y000578D01*
X025862Y000578D01*
X025617Y000763D02*
X025617Y000886D01*
X025556Y000948D01*
X025432Y000948D01*
X025371Y000886D01*
X025371Y000763D01*
X025432Y000701D01*
X025556Y000701D01*
X025617Y000763D01*
X025248Y000701D02*
X025125Y000701D01*
X025187Y000701D02*
X025187Y001071D01*
X025125Y001071D01*
X024942Y000948D02*
X025004Y000886D01*
X025004Y000701D01*
X024818Y000701D01*
X024757Y000763D01*
X024818Y000824D01*
X025004Y000824D01*
X024942Y000948D02*
X024818Y000948D01*
X024635Y000886D02*
X024635Y000701D01*
X024635Y000886D02*
X024574Y000948D01*
X024388Y000948D01*
X024388Y000701D01*
X024267Y000701D02*
X024267Y000948D01*
X024144Y001071D01*
X024020Y000948D01*
X024020Y000701D01*
X024020Y000886D02*
X024267Y000886D01*
D12*
X024221Y002274D02*
X024451Y002274D01*
X024374Y002427D01*
X024374Y002504D01*
X024451Y002581D01*
X024604Y002581D01*
X024681Y002504D01*
X024681Y002351D01*
X024604Y002274D01*
X024721Y002274D02*
X024721Y002504D01*
X024797Y002581D01*
X024951Y002581D01*
X025028Y002504D01*
X025028Y002274D01*
X025181Y002274D02*
X024721Y002274D01*
X025028Y002427D02*
X025181Y002581D01*
X025221Y002581D02*
X025221Y002274D01*
X025451Y002274D01*
X025374Y002427D01*
X025374Y002504D01*
X025451Y002581D01*
X025604Y002581D01*
X025681Y002504D01*
X025681Y002351D01*
X025604Y002274D01*
X025721Y002274D02*
X025721Y002504D01*
X025797Y002581D01*
X025951Y002581D01*
X026028Y002504D01*
X026028Y002274D01*
X026181Y002274D02*
X025721Y002274D01*
X026028Y002427D02*
X026181Y002581D01*
X026221Y002581D02*
X026221Y002274D01*
X026451Y002274D01*
X026374Y002427D01*
X026374Y002504D01*
X026451Y002581D01*
X026604Y002581D01*
X026681Y002504D01*
X026681Y002351D01*
X026604Y002274D01*
X026721Y002274D02*
X026721Y002504D01*
X026797Y002581D01*
X026951Y002581D01*
X027028Y002504D01*
X027028Y002274D01*
X027181Y002274D02*
X026721Y002274D01*
X027028Y002427D02*
X027181Y002581D01*
X027221Y002581D02*
X027221Y002274D01*
X027451Y002274D01*
X027374Y002427D01*
X027374Y002504D01*
X027451Y002581D01*
X027604Y002581D01*
X027681Y002504D01*
X027681Y002351D01*
X027604Y002274D01*
X027604Y002734D02*
X027451Y002734D01*
X027451Y002964D01*
X027528Y003041D01*
X027604Y003041D01*
X027681Y002964D01*
X027681Y002811D01*
X027604Y002734D01*
X027451Y002734D02*
X027297Y002888D01*
X027221Y003041D01*
X027181Y003041D02*
X027181Y002734D01*
X027181Y002888D02*
X026721Y002888D01*
X026874Y002734D01*
X026681Y002811D02*
X026681Y002964D01*
X026604Y003041D01*
X026528Y003041D01*
X026451Y002964D01*
X026451Y002734D01*
X026604Y002734D01*
X026681Y002811D01*
X026451Y002734D02*
X026297Y002888D01*
X026221Y003041D01*
X026181Y003041D02*
X026181Y002734D01*
X025874Y003041D01*
X025797Y003041D01*
X025721Y002964D01*
X025721Y002811D01*
X025797Y002734D01*
X025681Y002811D02*
X025681Y002964D01*
X025604Y003041D01*
X025528Y003041D01*
X025451Y002964D01*
X025451Y002734D01*
X025604Y002734D01*
X025681Y002811D01*
X025451Y002734D02*
X025297Y002888D01*
X025221Y003041D01*
X025181Y003041D02*
X025181Y002734D01*
X024874Y003041D01*
X024797Y003041D01*
X024721Y002964D01*
X024721Y002811D01*
X024797Y002734D01*
X024681Y002811D02*
X024681Y002964D01*
X024604Y003041D01*
X024528Y003041D01*
X024451Y002964D01*
X024451Y002734D01*
X024604Y002734D01*
X024681Y002811D01*
X024451Y002734D02*
X024297Y002888D01*
X024221Y003041D01*
X024181Y003041D02*
X024181Y002734D01*
X023874Y003041D01*
X023797Y003041D01*
X023721Y002964D01*
X023721Y002811D01*
X023797Y002734D01*
X023797Y002581D02*
X023951Y002581D01*
X024028Y002504D01*
X024028Y002274D01*
X024181Y002274D02*
X023721Y002274D01*
X023721Y002504D01*
X023797Y002581D01*
X024028Y002427D02*
X024181Y002581D01*
X024221Y002581D02*
X024221Y002274D01*
X023181Y002274D02*
X022721Y002274D01*
X022721Y002504D01*
X022797Y002581D01*
X022951Y002581D01*
X023028Y002504D01*
X023028Y002274D01*
X023028Y002427D02*
X023181Y002581D01*
X023181Y002734D02*
X022874Y003041D01*
X022797Y003041D01*
X022721Y002964D01*
X022721Y002811D01*
X022797Y002734D01*
X023181Y002734D02*
X023181Y003041D01*
X023181Y003195D02*
X022874Y003502D01*
X022797Y003502D01*
X022721Y003425D01*
X022721Y003271D01*
X022797Y003195D01*
X023181Y003195D02*
X023181Y003502D01*
X023721Y003348D02*
X023874Y003195D01*
X023721Y003348D02*
X024181Y003348D01*
X024221Y003271D02*
X024221Y003425D01*
X024297Y003502D01*
X024604Y003195D01*
X024681Y003271D01*
X024681Y003425D01*
X024604Y003502D01*
X024297Y003502D01*
X024181Y003502D02*
X024181Y003195D01*
X024221Y003271D02*
X024297Y003195D01*
X024604Y003195D01*
X024721Y003271D02*
X024797Y003195D01*
X024721Y003271D02*
X024721Y003425D01*
X024797Y003502D01*
X024874Y003502D01*
X024951Y003425D01*
X025028Y003502D01*
X025104Y003502D01*
X025181Y003425D01*
X025181Y003271D01*
X025104Y003195D01*
X025221Y003271D02*
X025221Y003425D01*
X025297Y003502D01*
X025604Y003195D01*
X025681Y003271D01*
X025681Y003425D01*
X025604Y003502D01*
X025297Y003502D01*
X025221Y003271D02*
X025297Y003195D01*
X025604Y003195D01*
X025721Y003271D02*
X025721Y003425D01*
X025797Y003502D01*
X026104Y003195D01*
X026181Y003271D01*
X026181Y003425D01*
X026104Y003502D01*
X025797Y003502D01*
X025721Y003271D02*
X025797Y003195D01*
X026104Y003195D01*
X026221Y003271D02*
X026297Y003195D01*
X026604Y003195D01*
X026297Y003502D01*
X026604Y003502D01*
X026681Y003425D01*
X026681Y003271D01*
X026604Y003195D01*
X026721Y003271D02*
X026797Y003195D01*
X026874Y003195D01*
X026951Y003271D01*
X026951Y003502D01*
X027104Y003502D02*
X026797Y003502D01*
X026721Y003425D01*
X026721Y003271D01*
X027104Y003195D02*
X027181Y003271D01*
X027181Y003425D01*
X027104Y003502D01*
X027221Y003425D02*
X027297Y003502D01*
X027604Y003195D01*
X027681Y003271D01*
X027681Y003425D01*
X027604Y003502D01*
X027297Y003502D01*
X027221Y003425D02*
X027221Y003271D01*
X027297Y003195D01*
X027604Y003195D01*
X028221Y003271D02*
X028297Y003195D01*
X028604Y003195D01*
X028297Y003502D01*
X028604Y003502D01*
X028681Y003425D01*
X028681Y003271D01*
X028604Y003195D01*
X028604Y003041D02*
X028528Y003041D01*
X028451Y002964D01*
X028451Y002734D01*
X028604Y002734D01*
X028681Y002811D01*
X028681Y002964D01*
X028604Y003041D01*
X028297Y002888D02*
X028451Y002734D01*
X028451Y002581D02*
X028604Y002581D01*
X028681Y002504D01*
X028681Y002351D01*
X028604Y002274D01*
X028451Y002274D02*
X028374Y002427D01*
X028374Y002504D01*
X028451Y002581D01*
X028221Y002581D02*
X028221Y002274D01*
X028451Y002274D01*
X028297Y002888D02*
X028221Y003041D01*
X028221Y003271D02*
X028221Y003425D01*
X028297Y003502D01*
X028181Y004024D02*
X027721Y004024D01*
X027721Y004254D01*
X027797Y004331D01*
X027951Y004331D01*
X028028Y004254D01*
X028028Y004024D01*
X028028Y004177D02*
X028181Y004331D01*
X028181Y004484D02*
X027874Y004791D01*
X027797Y004791D01*
X027721Y004714D01*
X027721Y004561D01*
X027797Y004484D01*
X028181Y004484D02*
X028181Y004791D01*
X028181Y004945D02*
X028104Y004945D01*
X027797Y005252D01*
X027721Y005252D01*
X027721Y004945D01*
X029221Y004254D02*
X029221Y004101D01*
X029297Y004024D01*
X029604Y004024D01*
X029297Y004331D01*
X029604Y004331D01*
X029681Y004254D01*
X029681Y004101D01*
X029604Y004024D01*
X029297Y004331D02*
X029221Y004254D01*
X026297Y003502D02*
X026221Y003425D01*
X026221Y003271D01*
X024951Y003348D02*
X024951Y003425D01*
X023491Y008524D02*
X023568Y008601D01*
X023568Y008677D01*
X023491Y008754D01*
X023261Y008754D01*
X023261Y008601D01*
X023337Y008524D01*
X023491Y008524D01*
X023261Y008754D02*
X023414Y008908D01*
X023568Y008984D01*
X023107Y008908D02*
X023107Y008754D01*
X023031Y008677D01*
X022800Y008677D01*
X022800Y008524D02*
X022800Y008984D01*
X023031Y008984D01*
X023107Y008908D01*
X022954Y008677D02*
X023107Y008524D01*
X023107Y009524D02*
X022954Y009677D01*
X023031Y009677D02*
X022800Y009677D01*
X022800Y009524D02*
X022800Y009984D01*
X023031Y009984D01*
X023107Y009908D01*
X023107Y009754D01*
X023031Y009677D01*
X023261Y009524D02*
X023568Y009831D01*
X023568Y009908D01*
X023491Y009984D01*
X023337Y009984D01*
X023261Y009908D01*
X023261Y010024D02*
X023261Y010484D01*
X023337Y010524D02*
X023261Y010601D01*
X023337Y010524D02*
X023491Y010524D01*
X023568Y010601D01*
X023568Y010754D01*
X023491Y010831D01*
X023414Y010831D01*
X023261Y010754D01*
X023261Y010984D01*
X023568Y010984D01*
X023568Y011024D02*
X023337Y011254D01*
X023261Y011177D02*
X023568Y011484D01*
X023261Y011484D02*
X023261Y011024D01*
X023107Y011024D02*
X022800Y011024D01*
X022800Y010984D02*
X023031Y010984D01*
X023107Y010908D01*
X023107Y010754D01*
X023031Y010677D01*
X022800Y010677D01*
X022800Y010524D02*
X022800Y010984D01*
X022647Y011024D02*
X022340Y011024D01*
X022493Y011024D02*
X022493Y011484D01*
X022340Y011331D01*
X022800Y011331D02*
X022954Y011484D01*
X022954Y011024D01*
X022954Y010677D02*
X023107Y010524D01*
X023030Y010484D02*
X022877Y010484D01*
X022800Y010408D01*
X023030Y010484D02*
X023107Y010408D01*
X023107Y010331D01*
X022800Y010024D01*
X023107Y010024D01*
X023261Y010177D02*
X023568Y010484D01*
X023337Y010254D02*
X023568Y010024D01*
X023568Y009524D02*
X023261Y009524D01*
X022647Y010024D02*
X022570Y010024D01*
X022570Y010101D01*
X022647Y010101D01*
X022647Y010024D01*
X022417Y010101D02*
X022417Y010177D01*
X022340Y010254D01*
X022110Y010254D01*
X022110Y010101D01*
X022186Y010024D01*
X022340Y010024D01*
X022417Y010101D01*
X022263Y010408D02*
X022110Y010254D01*
X022263Y010408D02*
X022417Y010484D01*
X022800Y011524D02*
X022800Y011984D01*
X023031Y011984D01*
X023107Y011908D01*
X023107Y011754D01*
X023031Y011677D01*
X022800Y011677D01*
X022954Y011677D02*
X023107Y011524D01*
X023261Y011524D02*
X023261Y011601D01*
X023568Y011908D01*
X023568Y011984D01*
X023261Y011984D01*
X023261Y012024D02*
X023261Y012484D01*
X023107Y012408D02*
X023030Y012484D01*
X022877Y012484D01*
X022800Y012408D01*
X023107Y012408D02*
X023107Y012331D01*
X022800Y012024D01*
X023107Y012024D01*
X023261Y012177D02*
X023568Y012484D01*
X023337Y012254D02*
X023568Y012024D01*
X022647Y012024D02*
X022570Y012024D01*
X022570Y012101D01*
X022647Y012101D01*
X022647Y012024D01*
X022417Y012101D02*
X022417Y012177D01*
X022340Y012254D01*
X022110Y012254D01*
X022110Y012101D01*
X022186Y012024D01*
X022340Y012024D01*
X022417Y012101D01*
X022263Y012408D02*
X022110Y012254D01*
X022263Y012408D02*
X022417Y012484D01*
X022340Y013024D02*
X022417Y013101D01*
X022417Y013177D01*
X022340Y013254D01*
X022110Y013254D01*
X022110Y013101D01*
X022186Y013024D01*
X022340Y013024D01*
X022570Y013024D02*
X022647Y013024D01*
X022647Y013101D01*
X022570Y013101D01*
X022570Y013024D01*
X022800Y013024D02*
X023107Y013331D01*
X023107Y013408D01*
X023030Y013484D01*
X022877Y013484D01*
X022800Y013408D01*
X022800Y013024D02*
X023107Y013024D01*
X023261Y013024D02*
X023261Y013484D01*
X023337Y013254D02*
X023568Y013024D01*
X023261Y013177D02*
X023568Y013484D01*
X022417Y013484D02*
X022263Y013408D01*
X022110Y013254D01*
X018699Y012158D02*
X018699Y011851D01*
X018622Y011774D01*
X018469Y011774D01*
X018392Y011851D01*
X018469Y012004D02*
X018699Y012004D01*
X018699Y012158D02*
X018622Y012234D01*
X018469Y012234D01*
X018392Y012158D01*
X018392Y012081D01*
X018469Y012004D01*
X018238Y012081D02*
X018238Y012158D01*
X018162Y012234D01*
X018008Y012234D01*
X017931Y012158D01*
X017778Y012158D02*
X017778Y012004D01*
X017701Y011927D01*
X017471Y011927D01*
X017471Y011774D02*
X017471Y012234D01*
X017701Y012234D01*
X017778Y012158D01*
X017625Y011927D02*
X017778Y011774D01*
X017931Y011774D02*
X018238Y012081D01*
X018238Y011774D02*
X017931Y011774D01*
X018008Y011234D02*
X018162Y011234D01*
X018238Y011158D01*
X018238Y011081D01*
X018162Y011004D01*
X018238Y010927D01*
X018238Y010851D01*
X018162Y010774D01*
X018008Y010774D01*
X017931Y010851D01*
X017778Y010774D02*
X017625Y010927D01*
X017701Y010927D02*
X017471Y010927D01*
X017471Y010774D02*
X017471Y011234D01*
X017701Y011234D01*
X017778Y011158D01*
X017778Y011004D01*
X017701Y010927D01*
X017701Y010734D02*
X017548Y010734D01*
X017471Y010658D01*
X017471Y010351D01*
X017778Y010658D01*
X017778Y010351D01*
X017701Y010274D01*
X017548Y010274D01*
X017471Y010351D01*
X017778Y010658D02*
X017701Y010734D01*
X018085Y011004D02*
X018162Y011004D01*
X018392Y010851D02*
X018469Y010774D01*
X018622Y010774D01*
X018699Y010851D01*
X018699Y011158D01*
X018392Y010851D01*
X018392Y011158D01*
X018469Y011234D01*
X018622Y011234D01*
X018699Y011158D01*
X018008Y011234D02*
X017931Y011158D01*
X017701Y009734D02*
X017548Y009734D01*
X017471Y009658D01*
X017471Y009351D01*
X017778Y009658D01*
X017778Y009351D01*
X017701Y009274D01*
X017548Y009274D01*
X017471Y009351D01*
X017778Y009658D02*
X017701Y009734D01*
X013080Y010351D02*
X013003Y010274D01*
X012850Y010274D01*
X012773Y010351D01*
X012773Y010427D01*
X012850Y010504D01*
X013003Y010504D01*
X013080Y010427D01*
X013080Y010351D01*
X013003Y010504D02*
X013080Y010581D01*
X013080Y010658D01*
X013003Y010734D01*
X012850Y010734D01*
X012773Y010658D01*
X012773Y010581D01*
X012850Y010504D01*
X012619Y010427D02*
X012619Y010351D01*
X012543Y010274D01*
X012389Y010274D01*
X012313Y010351D01*
X012159Y010274D02*
X011852Y010274D01*
X012006Y010274D02*
X012006Y010734D01*
X011852Y010581D01*
X011699Y010658D02*
X011622Y010734D01*
X011469Y010734D01*
X011392Y010658D01*
X011392Y010581D01*
X011469Y010504D01*
X011622Y010504D01*
X011699Y010427D01*
X011699Y010351D01*
X011622Y010274D01*
X011469Y010274D01*
X011392Y010351D01*
X011238Y010351D02*
X011162Y010274D01*
X011008Y010274D01*
X010931Y010351D01*
X010778Y010351D02*
X010778Y010427D01*
X010701Y010504D01*
X010471Y010504D01*
X010493Y010524D02*
X010493Y010984D01*
X010340Y010831D01*
X010451Y010810D02*
X009991Y010810D01*
X010451Y011117D01*
X009991Y011117D01*
X009991Y011271D02*
X009991Y011501D01*
X010067Y011578D01*
X010374Y011578D01*
X010451Y011501D01*
X010451Y011271D01*
X009991Y011271D01*
X010221Y010657D02*
X010221Y010350D01*
X010298Y010196D02*
X010374Y010196D01*
X010451Y010120D01*
X010451Y009890D01*
X009991Y009890D01*
X009991Y010120D01*
X010067Y010196D01*
X010144Y010196D01*
X010221Y010120D01*
X010221Y009890D01*
X010374Y009736D02*
X010067Y009736D01*
X009991Y009659D01*
X009991Y009429D01*
X010451Y009429D01*
X010451Y009659D01*
X010374Y009736D01*
X010800Y009484D02*
X011031Y009484D01*
X011107Y009408D01*
X011107Y009254D01*
X011031Y009177D01*
X010800Y009177D01*
X010800Y009024D02*
X010800Y009484D01*
X010954Y009177D02*
X011107Y009024D01*
X011261Y009254D02*
X011568Y009254D01*
X011491Y009024D02*
X011491Y009484D01*
X011261Y009254D01*
X010451Y008969D02*
X009991Y009276D01*
X009991Y008815D02*
X009991Y008509D01*
X010451Y008509D01*
X010451Y008815D01*
X010221Y008662D02*
X010221Y008509D01*
X010221Y008484D02*
X010451Y008484D01*
X010528Y008408D01*
X010528Y008254D01*
X010451Y008177D01*
X010221Y008177D01*
X010221Y008024D02*
X010221Y008484D01*
X010144Y008355D02*
X010067Y008355D01*
X009991Y008278D01*
X009991Y008125D01*
X010067Y008048D01*
X010067Y007895D02*
X009991Y007818D01*
X009991Y007665D01*
X010067Y007588D01*
X010374Y007588D01*
X010067Y007895D01*
X010374Y007895D01*
X010451Y007818D01*
X010451Y007665D01*
X010374Y007588D01*
X010451Y007484D02*
X010221Y007484D01*
X010221Y007024D01*
X010298Y007127D02*
X010221Y007204D01*
X010221Y007358D01*
X010298Y007434D01*
X010374Y007434D01*
X010451Y007358D01*
X010451Y007204D01*
X010374Y007127D01*
X010298Y007127D01*
X010375Y007177D02*
X010528Y007024D01*
X010451Y006974D02*
X010451Y006667D01*
X010451Y006821D02*
X009991Y006821D01*
X010144Y006667D01*
X010221Y006524D02*
X010528Y006524D01*
X010375Y006524D02*
X010375Y006984D01*
X010221Y006831D01*
X010144Y007127D02*
X010067Y007127D01*
X009991Y007204D01*
X009991Y007358D01*
X010067Y007434D01*
X010144Y007434D01*
X010221Y007358D01*
X010221Y007204D02*
X010144Y007127D01*
X010221Y007177D02*
X010451Y007177D01*
X010528Y007254D01*
X010528Y007408D01*
X010451Y007484D01*
X010681Y007408D02*
X010681Y007331D01*
X010758Y007254D01*
X010912Y007254D01*
X010988Y007177D01*
X010988Y007101D01*
X010912Y007024D01*
X010758Y007024D01*
X010681Y007101D01*
X010681Y007177D01*
X010758Y007254D01*
X010912Y007254D02*
X010988Y007331D01*
X010988Y007408D01*
X010912Y007484D01*
X010758Y007484D01*
X010681Y007408D01*
X010835Y006984D02*
X010835Y006524D01*
X010988Y006524D02*
X010681Y006524D01*
X010681Y006831D02*
X010835Y006984D01*
X011142Y006984D02*
X011142Y006524D01*
X011142Y006677D02*
X011449Y006984D01*
X011528Y007024D02*
X011528Y007254D01*
X011451Y007331D01*
X011297Y007331D01*
X011221Y007254D01*
X011221Y007024D01*
X011681Y007024D01*
X011528Y007177D02*
X011681Y007331D01*
X011681Y007484D02*
X011374Y007791D01*
X011297Y007791D01*
X011221Y007714D01*
X011221Y007561D01*
X011297Y007484D01*
X011681Y007484D02*
X011681Y007791D01*
X011604Y007945D02*
X011528Y007945D01*
X011451Y008021D01*
X011451Y008175D01*
X011528Y008252D01*
X011604Y008252D01*
X011681Y008175D01*
X011681Y008021D01*
X011604Y007945D01*
X011451Y008021D02*
X011374Y007945D01*
X011297Y007945D01*
X011221Y008021D01*
X011221Y008175D01*
X011297Y008252D01*
X011374Y008252D01*
X011451Y008175D01*
X010988Y008024D02*
X010681Y008024D01*
X010528Y008024D02*
X010375Y008177D01*
X010451Y008048D02*
X010144Y008355D01*
X010451Y008355D02*
X010451Y008048D01*
X010681Y008331D02*
X010835Y008484D01*
X010835Y008024D01*
X011219Y006754D02*
X011449Y006524D01*
X011449Y005984D02*
X011142Y005677D01*
X011219Y005754D02*
X011449Y005524D01*
X011142Y005524D02*
X011142Y005984D01*
X010835Y005984D02*
X010681Y005831D01*
X010835Y005984D02*
X010835Y005524D01*
X010988Y005524D02*
X010681Y005524D01*
X010528Y005524D02*
X010221Y005524D01*
X010221Y005593D02*
X010374Y005593D01*
X010451Y005516D01*
X010451Y005363D01*
X010374Y005286D01*
X010221Y005286D02*
X010144Y005439D01*
X010144Y005516D01*
X010221Y005593D01*
X010375Y005524D02*
X010375Y005984D01*
X010221Y005831D01*
X010221Y005823D02*
X010221Y005977D01*
X010298Y006053D01*
X010374Y006053D01*
X010451Y005977D01*
X010451Y005823D01*
X010374Y005746D01*
X010221Y005823D02*
X010144Y005746D01*
X010067Y005746D01*
X009991Y005823D01*
X009991Y005977D01*
X010067Y006053D01*
X010087Y006024D02*
X010318Y006024D01*
X010318Y006331D01*
X010221Y006207D02*
X010221Y006514D01*
X010011Y006331D02*
X010011Y006101D01*
X010087Y006024D01*
X009857Y006024D02*
X009550Y006024D01*
X009704Y006024D02*
X009704Y006484D01*
X009550Y006331D01*
X009991Y005593D02*
X009991Y005286D01*
X010221Y005286D01*
X010144Y005133D02*
X010067Y005133D01*
X009991Y005056D01*
X009991Y004902D01*
X010067Y004826D01*
X010011Y004908D02*
X010087Y004984D01*
X010241Y004984D01*
X010318Y004908D01*
X010318Y004831D01*
X010011Y004524D01*
X010318Y004524D01*
X010221Y004596D02*
X010221Y004442D01*
X010144Y004365D01*
X010067Y004365D01*
X009991Y004442D01*
X009991Y004596D01*
X010067Y004672D01*
X010144Y004672D01*
X010221Y004596D01*
X010298Y004672D01*
X010374Y004672D01*
X010451Y004596D01*
X010451Y004442D01*
X010374Y004365D01*
X010298Y004365D01*
X010221Y004442D01*
X010451Y004212D02*
X010451Y003905D01*
X010451Y004058D02*
X009991Y004058D01*
X010144Y003905D01*
X010067Y003752D02*
X010221Y003752D01*
X010298Y003675D01*
X010298Y003445D01*
X010451Y003445D02*
X009991Y003445D01*
X009991Y003675D01*
X010067Y003752D01*
X009911Y003598D02*
X009911Y003291D01*
X009604Y003598D01*
X009527Y003598D01*
X009451Y003521D01*
X009451Y003368D01*
X009527Y003291D01*
X009527Y003138D02*
X009451Y003061D01*
X009451Y002908D01*
X009527Y002831D01*
X009834Y002831D01*
X009911Y002908D01*
X009911Y003061D01*
X009834Y003138D01*
X009991Y003214D02*
X009991Y003061D01*
X010067Y002984D01*
X010374Y002984D01*
X010451Y003061D01*
X010451Y003214D01*
X010374Y003291D01*
X010067Y003291D02*
X009991Y003214D01*
X009991Y002831D02*
X010451Y002831D01*
X010144Y002677D02*
X009991Y002831D01*
X009911Y002677D02*
X009911Y002524D01*
X009911Y002601D02*
X009451Y002601D01*
X009451Y002677D02*
X009451Y002524D01*
X009550Y002331D02*
X009704Y002484D01*
X009704Y002024D01*
X009857Y002024D02*
X009550Y002024D01*
X010011Y002101D02*
X010087Y002024D01*
X010318Y002024D01*
X010318Y002331D01*
X010451Y002524D02*
X009991Y002524D01*
X010144Y002677D01*
X010011Y002331D02*
X010011Y002101D01*
X011351Y002258D02*
X011631Y002258D01*
X011631Y002165D02*
X011631Y002351D01*
X011444Y002165D02*
X011351Y002258D01*
X011401Y003016D02*
X011355Y003063D01*
X011355Y003156D01*
X011401Y003203D01*
X011448Y003203D01*
X011635Y003016D01*
X011635Y003203D01*
X011584Y003926D02*
X011631Y003973D01*
X011631Y004066D01*
X011584Y004113D01*
X011538Y004113D01*
X011491Y004066D01*
X011491Y004019D01*
X011491Y004066D02*
X011444Y004113D01*
X011398Y004113D01*
X011351Y004066D01*
X011351Y003973D01*
X011398Y003926D01*
X011721Y004024D02*
X011721Y004254D01*
X011797Y004331D01*
X011951Y004331D01*
X012028Y004254D01*
X012028Y004024D01*
X012181Y004024D02*
X011721Y004024D01*
X012028Y004177D02*
X012181Y004331D01*
X012181Y004484D02*
X011874Y004791D01*
X011797Y004791D01*
X011721Y004714D01*
X011721Y004561D01*
X011797Y004484D01*
X012181Y004484D02*
X012181Y004791D01*
X012104Y004945D02*
X012181Y005021D01*
X012181Y005175D01*
X012104Y005252D01*
X012028Y005252D01*
X011951Y005175D01*
X011951Y004945D01*
X012104Y004945D01*
X011951Y004945D02*
X011797Y005098D01*
X011721Y005252D01*
X010451Y005133D02*
X010451Y004826D01*
X010144Y005133D01*
X009857Y004908D02*
X009781Y004984D01*
X009627Y004984D01*
X009550Y004908D01*
X009550Y004601D01*
X009627Y004524D01*
X009781Y004524D01*
X009857Y004601D01*
X008931Y004414D02*
X008651Y004414D01*
X008791Y004274D01*
X008791Y004461D01*
X012721Y007101D02*
X012721Y007254D01*
X012797Y007331D01*
X013104Y007024D01*
X013181Y007101D01*
X013181Y007254D01*
X013104Y007331D01*
X012797Y007331D01*
X012721Y007101D02*
X012797Y007024D01*
X013104Y007024D01*
X013297Y004331D02*
X013604Y004024D01*
X013681Y004101D01*
X013681Y004254D01*
X013604Y004331D01*
X013297Y004331D01*
X013221Y004254D01*
X013221Y004101D01*
X013297Y004024D01*
X013604Y004024D01*
X013840Y004004D02*
X013840Y004234D01*
X014147Y004234D01*
X014070Y004081D02*
X014147Y004004D01*
X014147Y003851D01*
X014070Y003774D01*
X013917Y003774D01*
X013840Y003851D01*
X013840Y004004D02*
X013993Y004081D01*
X014070Y004081D01*
X014300Y004004D02*
X014300Y003851D01*
X014377Y003774D01*
X014530Y003774D01*
X014607Y003851D01*
X014607Y003927D01*
X014530Y004004D01*
X014300Y004004D01*
X014454Y004158D01*
X014607Y004234D01*
X014761Y004158D02*
X014837Y004234D01*
X014991Y004234D01*
X015068Y004158D01*
X014761Y003851D01*
X014837Y003774D01*
X014991Y003774D01*
X015068Y003851D01*
X015068Y004158D01*
X014761Y004158D02*
X014761Y003851D01*
X014991Y002734D02*
X014761Y002504D01*
X015068Y002504D01*
X014991Y002274D02*
X014991Y002734D01*
X014607Y002658D02*
X014607Y002581D01*
X014300Y002274D01*
X014607Y002274D01*
X014607Y002658D02*
X014530Y002734D01*
X014377Y002734D01*
X014300Y002658D01*
X014147Y002658D02*
X014147Y002504D01*
X014070Y002427D01*
X013840Y002427D01*
X013840Y002274D02*
X013840Y002734D01*
X014070Y002734D01*
X014147Y002658D01*
X013993Y002427D02*
X014147Y002274D01*
X010318Y000524D02*
X010011Y000524D01*
X010164Y000524D02*
X010164Y000984D01*
X010011Y000831D01*
X009857Y000908D02*
X009781Y000984D01*
X009627Y000984D01*
X009550Y000908D01*
X009550Y000601D01*
X009627Y000524D01*
X009781Y000524D01*
X009857Y000601D01*
X010221Y010120D02*
X010298Y010196D01*
X010471Y010274D02*
X010701Y010274D01*
X010778Y010351D01*
X010701Y010504D02*
X010778Y010581D01*
X010778Y010658D01*
X010701Y010734D01*
X010471Y010734D01*
X010471Y010274D01*
X010340Y010524D02*
X010647Y010524D01*
X010800Y010524D02*
X011107Y010524D01*
X011162Y010504D02*
X011238Y010427D01*
X011238Y010351D01*
X011162Y010504D02*
X011008Y010504D01*
X010931Y010581D01*
X010931Y010658D01*
X011008Y010734D01*
X011162Y010734D01*
X011238Y010658D01*
X011261Y010677D02*
X011568Y010984D01*
X011261Y010984D02*
X011261Y010524D01*
X011337Y010754D02*
X011568Y010524D01*
X010954Y010524D02*
X010954Y010984D01*
X010800Y010831D01*
X012313Y010658D02*
X012389Y010734D01*
X012543Y010734D01*
X012619Y010658D01*
X012619Y010581D01*
X012543Y010504D01*
X012619Y010427D01*
X012543Y010504D02*
X012466Y010504D01*
X011238Y012274D02*
X010931Y012274D01*
X010778Y012274D02*
X010625Y012427D01*
X010778Y012351D02*
X010701Y012274D01*
X010548Y012274D01*
X010471Y012351D01*
X010471Y012658D01*
X010548Y012734D01*
X010701Y012734D01*
X010778Y012658D01*
X010778Y012351D01*
X010931Y012581D02*
X011085Y012734D01*
X011085Y012274D01*
X010681Y012643D02*
X010681Y012950D01*
X010681Y013103D02*
X010681Y013410D01*
X010681Y013257D02*
X010221Y013257D01*
X010374Y013103D01*
X010221Y012796D02*
X010681Y012796D01*
X010374Y012643D02*
X010221Y012796D01*
X009795Y012984D02*
X009795Y012524D01*
X009642Y012524D02*
X009949Y012524D01*
X009488Y012601D02*
X009412Y012524D01*
X009258Y012524D01*
X009181Y012601D01*
X009028Y012524D02*
X008875Y012677D01*
X008951Y012677D02*
X008721Y012677D01*
X008721Y012524D02*
X008721Y012984D01*
X008951Y012984D01*
X009028Y012908D01*
X009028Y012754D01*
X008951Y012677D01*
X009181Y012908D02*
X009258Y012984D01*
X009412Y012984D01*
X009488Y012908D01*
X009488Y012831D01*
X009412Y012754D01*
X009488Y012677D01*
X009488Y012601D01*
X009412Y012754D02*
X009335Y012754D01*
X009642Y012831D02*
X009795Y012984D01*
X010221Y013564D02*
X010681Y013564D01*
X010528Y013564D02*
X010221Y013870D01*
X010451Y013640D02*
X010681Y013870D01*
X011721Y013794D02*
X011797Y013870D01*
X011874Y013870D01*
X011951Y013794D01*
X012028Y013870D01*
X012104Y013870D01*
X012181Y013794D01*
X012181Y013640D01*
X012104Y013564D01*
X012181Y013410D02*
X012028Y013257D01*
X012028Y013333D02*
X012028Y013103D01*
X012181Y013103D02*
X011721Y013103D01*
X011721Y013333D01*
X011797Y013410D01*
X011951Y013410D01*
X012028Y013333D01*
X011797Y013564D02*
X011721Y013640D01*
X011721Y013794D01*
X011951Y013794D02*
X011951Y013717D01*
X009028Y011408D02*
X008951Y011484D01*
X008798Y011484D01*
X008721Y011408D01*
X008721Y011101D01*
X009028Y011408D01*
X009028Y011101D01*
X008951Y011024D01*
X008798Y011024D01*
X008721Y011101D01*
X017221Y018774D02*
X017221Y019004D01*
X017297Y019081D01*
X017451Y019081D01*
X017528Y019004D01*
X017528Y018774D01*
X017681Y018774D02*
X017221Y018774D01*
X017528Y018927D02*
X017681Y019081D01*
X017681Y019234D02*
X017681Y019541D01*
X017681Y019388D02*
X017221Y019388D01*
X017374Y019234D01*
X017451Y019695D02*
X017451Y019925D01*
X017528Y020002D01*
X017604Y020002D01*
X017681Y019925D01*
X017681Y019771D01*
X017604Y019695D01*
X017451Y019695D01*
X017297Y019848D01*
X017221Y020002D01*
X018221Y019925D02*
X018451Y019695D01*
X018451Y020002D01*
X018681Y019925D02*
X018221Y019925D01*
X018721Y019925D02*
X018721Y019771D01*
X018797Y019695D01*
X019104Y019695D01*
X018797Y020002D01*
X019104Y020002D01*
X019181Y019925D01*
X019181Y019771D01*
X019104Y019695D01*
X019104Y019541D02*
X019028Y019541D01*
X018951Y019464D01*
X018951Y019234D01*
X019104Y019234D01*
X019181Y019311D01*
X019181Y019464D01*
X019104Y019541D01*
X018797Y019388D02*
X018951Y019234D01*
X018951Y019081D02*
X019104Y019081D01*
X019181Y019004D01*
X019181Y018851D01*
X019104Y018774D01*
X018951Y018774D02*
X018874Y018927D01*
X018874Y019004D01*
X018951Y019081D01*
X018721Y019081D02*
X018721Y018774D01*
X018951Y018774D01*
X018681Y018774D02*
X018221Y018774D01*
X018221Y019004D01*
X018297Y019081D01*
X018451Y019081D01*
X018528Y019004D01*
X018528Y018774D01*
X018528Y018927D02*
X018681Y019081D01*
X018681Y019234D02*
X018681Y019541D01*
X018721Y019541D02*
X018797Y019388D01*
X018681Y019388D02*
X018221Y019388D01*
X018374Y019234D01*
X018721Y019925D02*
X018797Y020002D01*
X019721Y019925D02*
X019721Y019771D01*
X019797Y019695D01*
X020104Y019695D01*
X019797Y020002D01*
X020104Y020002D01*
X020181Y019925D01*
X020181Y019771D01*
X020104Y019695D01*
X020181Y019771D01*
X020181Y019925D01*
X020104Y020002D01*
X020028Y020002D01*
X019951Y019925D01*
X019951Y019848D01*
X019951Y019925D02*
X019874Y020002D01*
X019797Y020002D01*
X019721Y019925D01*
X019797Y020002D01*
X019721Y019925D02*
X019721Y019771D01*
X019797Y019695D01*
X019721Y019541D02*
X019797Y019388D01*
X019951Y019234D01*
X019951Y019464D01*
X020028Y019541D01*
X020104Y019541D01*
X020181Y019464D01*
X020181Y019311D01*
X020104Y019234D01*
X019951Y019234D01*
X019874Y019234D02*
X019721Y019388D01*
X020181Y019388D01*
X020181Y019541D02*
X020181Y019234D01*
X020181Y019081D02*
X020028Y018927D01*
X020028Y019004D02*
X020028Y018774D01*
X020104Y018774D02*
X020181Y018851D01*
X020181Y019004D01*
X020104Y019081D01*
X019951Y019081D01*
X019874Y019004D01*
X019874Y018927D01*
X019951Y018774D01*
X019721Y018774D01*
X019721Y019081D01*
X019797Y019081D02*
X019951Y019081D01*
X020028Y019004D01*
X019797Y019081D02*
X019721Y019004D01*
X019721Y018774D01*
X020181Y018774D01*
X020721Y018774D02*
X020721Y019004D01*
X020797Y019081D01*
X020951Y019081D01*
X021028Y019004D01*
X021028Y018774D01*
X021181Y018774D02*
X020721Y018774D01*
X021028Y018927D02*
X021181Y019081D01*
X021221Y019081D02*
X021221Y018774D01*
X021451Y018774D01*
X021374Y018927D01*
X021374Y019004D01*
X021451Y019081D01*
X021604Y019081D01*
X021681Y019004D01*
X021681Y018851D01*
X021604Y018774D01*
X021721Y018774D02*
X021721Y019004D01*
X021797Y019081D01*
X021951Y019081D01*
X022028Y019004D01*
X022028Y018774D01*
X022181Y018774D02*
X021721Y018774D01*
X022028Y018927D02*
X022181Y019081D01*
X022221Y019081D02*
X022221Y018774D01*
X022451Y018774D01*
X022374Y018927D01*
X022374Y019004D01*
X022451Y019081D01*
X022604Y019081D01*
X022681Y019004D01*
X022681Y018851D01*
X022604Y018774D01*
X022721Y018774D02*
X022721Y019004D01*
X022797Y019081D01*
X022951Y019081D01*
X023028Y019004D01*
X023028Y018774D01*
X023181Y018774D02*
X022721Y018774D01*
X023028Y018927D02*
X023181Y019081D01*
X023221Y019081D02*
X023221Y018774D01*
X023451Y018774D01*
X023374Y018927D01*
X023374Y019004D01*
X023451Y019081D01*
X023604Y019081D01*
X023681Y019004D01*
X023681Y018851D01*
X023604Y018774D01*
X023721Y018774D02*
X023721Y019004D01*
X023797Y019081D01*
X023951Y019081D01*
X024028Y019004D01*
X024028Y018774D01*
X024181Y018774D02*
X023721Y018774D01*
X024028Y018927D02*
X024181Y019081D01*
X024221Y019081D02*
X024221Y018774D01*
X024451Y018774D01*
X024374Y018927D01*
X024374Y019004D01*
X024451Y019081D01*
X024604Y019081D01*
X024681Y019004D01*
X024681Y018851D01*
X024604Y018774D01*
X024721Y018774D02*
X024721Y019004D01*
X024797Y019081D01*
X024951Y019081D01*
X025028Y019004D01*
X025028Y018774D01*
X025181Y018774D02*
X024721Y018774D01*
X025028Y018927D02*
X025181Y019081D01*
X025221Y019081D02*
X025221Y018774D01*
X025451Y018774D01*
X025374Y018927D01*
X025374Y019004D01*
X025451Y019081D01*
X025604Y019081D01*
X025681Y019004D01*
X025681Y018851D01*
X025604Y018774D01*
X025721Y018700D02*
X025721Y018393D01*
X025951Y018393D01*
X025874Y018546D01*
X025874Y018623D01*
X025951Y018700D01*
X026104Y018700D01*
X026181Y018623D01*
X026181Y018469D01*
X026104Y018393D01*
X026221Y018774D02*
X026451Y018774D01*
X026374Y018927D01*
X026374Y019004D01*
X026451Y019081D01*
X026604Y019081D01*
X026681Y019004D01*
X026681Y018851D01*
X026604Y018774D01*
X026721Y018700D02*
X026721Y018393D01*
X026951Y018393D01*
X026874Y018546D01*
X026874Y018623D01*
X026951Y018700D01*
X027104Y018700D01*
X027181Y018623D01*
X027181Y018469D01*
X027104Y018393D01*
X027221Y018393D02*
X027221Y018623D01*
X027297Y018700D01*
X027451Y018700D01*
X027528Y018623D01*
X027528Y018393D01*
X027681Y018393D02*
X027221Y018393D01*
X027528Y018546D02*
X027681Y018700D01*
X027681Y018853D02*
X027681Y019160D01*
X027681Y019007D02*
X027221Y019007D01*
X027374Y018853D01*
X027181Y018930D02*
X027181Y019083D01*
X027104Y019160D01*
X027028Y019160D01*
X026951Y019083D01*
X026951Y018853D01*
X027104Y018853D01*
X027181Y018930D01*
X026951Y018853D02*
X026797Y019007D01*
X026721Y019160D01*
X026604Y019234D02*
X026681Y019311D01*
X026681Y019464D01*
X026604Y019541D01*
X026528Y019541D01*
X026451Y019464D01*
X026451Y019234D01*
X026604Y019234D01*
X026451Y019234D02*
X026297Y019388D01*
X026221Y019541D01*
X026181Y019544D02*
X026181Y019390D01*
X026104Y019314D01*
X025797Y019620D01*
X026104Y019620D01*
X026181Y019544D01*
X026297Y019695D02*
X026221Y019771D01*
X026221Y019925D01*
X026297Y020002D01*
X026604Y019695D01*
X026681Y019771D01*
X026681Y019925D01*
X026604Y020002D01*
X026297Y020002D01*
X026297Y019695D02*
X026604Y019695D01*
X026721Y019544D02*
X026797Y019620D01*
X027104Y019314D01*
X027181Y019390D01*
X027181Y019544D01*
X027104Y019620D01*
X026797Y019620D01*
X026721Y019544D02*
X026721Y019390D01*
X026797Y019314D01*
X027104Y019314D01*
X027221Y019390D02*
X027221Y019544D01*
X027297Y019620D01*
X027374Y019620D01*
X027451Y019544D01*
X027451Y019390D01*
X027374Y019314D01*
X027297Y019314D01*
X027221Y019390D01*
X027451Y019390D02*
X027528Y019314D01*
X027604Y019314D01*
X027681Y019390D01*
X027681Y019544D01*
X027604Y019620D01*
X027528Y019620D01*
X027451Y019544D01*
X028221Y019620D02*
X028221Y019314D01*
X028221Y019620D02*
X028297Y019620D01*
X028604Y019314D01*
X028681Y019314D01*
X028681Y019160D02*
X028681Y018853D01*
X028681Y018700D02*
X028528Y018546D01*
X028528Y018623D02*
X028528Y018393D01*
X028681Y018393D02*
X028221Y018393D01*
X028221Y018623D01*
X028297Y018700D01*
X028451Y018700D01*
X028528Y018623D01*
X028374Y018853D02*
X028221Y019007D01*
X028681Y019007D01*
X026221Y019081D02*
X026221Y018774D01*
X026104Y018853D02*
X025951Y018853D01*
X025951Y019083D01*
X026028Y019160D01*
X026104Y019160D01*
X026181Y019083D01*
X026181Y018930D01*
X026104Y018853D01*
X025951Y018853D02*
X025797Y019007D01*
X025721Y019160D01*
X025604Y019234D02*
X025681Y019311D01*
X025681Y019464D01*
X025604Y019541D01*
X025528Y019541D01*
X025451Y019464D01*
X025451Y019234D01*
X025604Y019234D01*
X025451Y019234D02*
X025297Y019388D01*
X025221Y019541D01*
X025181Y019464D02*
X025104Y019541D01*
X024797Y019541D01*
X024721Y019464D01*
X024721Y019311D01*
X024797Y019234D01*
X024874Y019234D01*
X024951Y019311D01*
X024951Y019541D01*
X025181Y019464D02*
X025181Y019311D01*
X025104Y019234D01*
X024681Y019311D02*
X024681Y019464D01*
X024604Y019541D01*
X024528Y019541D01*
X024451Y019464D01*
X024451Y019234D01*
X024604Y019234D01*
X024681Y019311D01*
X024451Y019234D02*
X024297Y019388D01*
X024221Y019541D01*
X024181Y019541D02*
X024181Y019234D01*
X024181Y019388D02*
X023721Y019388D01*
X023874Y019234D01*
X023681Y019311D02*
X023681Y019464D01*
X023604Y019541D01*
X023528Y019541D01*
X023451Y019464D01*
X023451Y019234D01*
X023604Y019234D01*
X023681Y019311D01*
X023451Y019234D02*
X023297Y019388D01*
X023221Y019541D01*
X023181Y019541D02*
X023181Y019234D01*
X023181Y019388D02*
X022721Y019388D01*
X022874Y019234D01*
X022681Y019311D02*
X022681Y019464D01*
X022604Y019541D01*
X022528Y019541D01*
X022451Y019464D01*
X022451Y019234D01*
X022604Y019234D01*
X022681Y019311D01*
X022451Y019234D02*
X022297Y019388D01*
X022221Y019541D01*
X022181Y019541D02*
X022181Y019234D01*
X022181Y019388D02*
X021721Y019388D01*
X021874Y019234D01*
X021681Y019311D02*
X021681Y019464D01*
X021604Y019541D01*
X021528Y019541D01*
X021451Y019464D01*
X021451Y019234D01*
X021604Y019234D01*
X021681Y019311D01*
X021451Y019234D02*
X021297Y019388D01*
X021221Y019541D01*
X021181Y019541D02*
X021181Y019234D01*
X021181Y019388D02*
X020721Y019388D01*
X020874Y019234D01*
X020951Y019695D02*
X020874Y019848D01*
X020874Y019925D01*
X020951Y020002D01*
X021104Y020002D01*
X021181Y019925D01*
X021181Y019771D01*
X021104Y019695D01*
X021221Y019771D02*
X021221Y019925D01*
X021297Y020002D01*
X021604Y019695D01*
X021681Y019771D01*
X021681Y019925D01*
X021604Y020002D01*
X021297Y020002D01*
X021221Y019771D02*
X021297Y019695D01*
X021604Y019695D01*
X021721Y019771D02*
X021721Y019925D01*
X021797Y020002D01*
X022104Y019695D01*
X022181Y019771D01*
X022181Y019925D01*
X022104Y020002D01*
X021797Y020002D01*
X021721Y019771D02*
X021797Y019695D01*
X022104Y019695D01*
X022221Y019771D02*
X022221Y019925D01*
X022297Y020002D01*
X022604Y019695D01*
X022681Y019771D01*
X022681Y019925D01*
X022604Y020002D01*
X022297Y020002D01*
X022221Y019771D02*
X022297Y019695D01*
X022604Y019695D01*
X022721Y019771D02*
X022797Y019695D01*
X022721Y019771D02*
X022721Y019925D01*
X022797Y020002D01*
X022874Y020002D01*
X023181Y019695D01*
X023181Y020002D01*
X023221Y019925D02*
X023297Y020002D01*
X023604Y019695D01*
X023681Y019771D01*
X023681Y019925D01*
X023604Y020002D01*
X023297Y020002D01*
X023221Y019925D02*
X023221Y019771D01*
X023297Y019695D01*
X023604Y019695D01*
X023721Y019848D02*
X024181Y019848D01*
X024221Y019771D02*
X024221Y019925D01*
X024297Y020002D01*
X024604Y019695D01*
X024681Y019771D01*
X024681Y019925D01*
X024604Y020002D01*
X024297Y020002D01*
X024181Y020002D02*
X024181Y019695D01*
X024221Y019771D02*
X024297Y019695D01*
X024604Y019695D01*
X025221Y019771D02*
X025221Y019925D01*
X025297Y020002D01*
X025604Y019695D01*
X025681Y019771D01*
X025681Y019925D01*
X025604Y020002D01*
X025297Y020002D01*
X025221Y019771D02*
X025297Y019695D01*
X025604Y019695D01*
X025721Y019544D02*
X025797Y019620D01*
X025721Y019544D02*
X025721Y019390D01*
X025797Y019314D01*
X026104Y019314D01*
X023874Y019695D02*
X023721Y019848D01*
X020951Y019695D02*
X020721Y019695D01*
X020721Y020002D01*
D13*
X010651Y004794D02*
X009251Y004794D01*
X009251Y002214D01*
X010651Y002214D01*
X010651Y004794D01*
D14*
X012827Y005886D02*
X012827Y016122D01*
X013811Y011004D02*
X013819Y011342D01*
X013844Y011679D01*
X013886Y012015D01*
X013943Y012348D01*
X014017Y012678D01*
X014108Y013004D01*
X014214Y013325D01*
X014335Y013641D01*
X014473Y013950D01*
X014625Y014252D01*
X014791Y014546D01*
X014972Y014832D01*
X015167Y015108D01*
X015375Y015375D01*
X015596Y015631D01*
X015829Y015876D01*
X016074Y016109D01*
X016330Y016330D01*
X016597Y016538D01*
X016873Y016733D01*
X017159Y016914D01*
X017453Y017080D01*
X017755Y017232D01*
X018064Y017370D01*
X018380Y017491D01*
X018701Y017597D01*
X019027Y017688D01*
X019357Y017762D01*
X019690Y017819D01*
X020026Y017861D01*
X020363Y017886D01*
X020701Y017894D01*
X021039Y017886D01*
X021376Y017861D01*
X021712Y017819D01*
X022045Y017762D01*
X022375Y017688D01*
X022701Y017597D01*
X023022Y017491D01*
X023338Y017370D01*
X023647Y017232D01*
X023949Y017080D01*
X024243Y016914D01*
X024529Y016733D01*
X024805Y016538D01*
X025072Y016330D01*
X025328Y016109D01*
X025573Y015876D01*
X025806Y015631D01*
X026027Y015375D01*
X026235Y015108D01*
X026430Y014832D01*
X026611Y014546D01*
X026777Y014252D01*
X026929Y013950D01*
X027067Y013641D01*
X027188Y013325D01*
X027294Y013004D01*
X027385Y012678D01*
X027459Y012348D01*
X027516Y012015D01*
X027558Y011679D01*
X027583Y011342D01*
X027591Y011004D01*
X027583Y010666D01*
X027558Y010329D01*
X027516Y009993D01*
X027459Y009660D01*
X027385Y009330D01*
X027294Y009004D01*
X027188Y008683D01*
X027067Y008367D01*
X026929Y008058D01*
X026777Y007756D01*
X026611Y007462D01*
X026430Y007176D01*
X026235Y006900D01*
X026027Y006633D01*
X025806Y006377D01*
X025573Y006132D01*
X025328Y005899D01*
X025072Y005678D01*
X024805Y005470D01*
X024529Y005275D01*
X024243Y005094D01*
X023949Y004928D01*
X023647Y004776D01*
X023338Y004638D01*
X023022Y004517D01*
X022701Y004411D01*
X022375Y004320D01*
X022045Y004246D01*
X021712Y004189D01*
X021376Y004147D01*
X021039Y004122D01*
X020701Y004114D01*
X020363Y004122D01*
X020026Y004147D01*
X019690Y004189D01*
X019357Y004246D01*
X019027Y004320D01*
X018701Y004411D01*
X018380Y004517D01*
X018064Y004638D01*
X017755Y004776D01*
X017453Y004928D01*
X017159Y005094D01*
X016873Y005275D01*
X016597Y005470D01*
X016330Y005678D01*
X016074Y005899D01*
X015829Y006132D01*
X015596Y006377D01*
X015375Y006633D01*
X015167Y006900D01*
X014972Y007176D01*
X014791Y007462D01*
X014625Y007756D01*
X014473Y008058D01*
X014335Y008367D01*
X014214Y008683D01*
X014108Y009004D01*
X014017Y009330D01*
X013943Y009660D01*
X013886Y009993D01*
X013844Y010329D01*
X013819Y010666D01*
X013811Y011004D01*
X028575Y005886D02*
X028575Y016122D01*
D15*
X021092Y013747D02*
X020665Y013747D01*
X020878Y013747D02*
X020878Y014387D01*
X020665Y014174D01*
X020447Y014280D02*
X020447Y013853D01*
X020340Y013747D01*
X020020Y013747D01*
X020020Y014387D01*
X020340Y014387D01*
X020447Y014280D01*
X019803Y014387D02*
X019376Y014387D01*
X019376Y013747D01*
X019803Y013747D01*
X019589Y014067D02*
X019376Y014067D01*
X019158Y013747D02*
X018731Y013747D01*
X018731Y014387D01*
X018731Y008462D02*
X018731Y007821D01*
X019158Y007821D01*
X019376Y007821D02*
X019803Y007821D01*
X020020Y007821D02*
X020340Y007821D01*
X020447Y007928D01*
X020447Y008355D01*
X020340Y008462D01*
X020020Y008462D01*
X020020Y007821D01*
X019589Y008142D02*
X019376Y008142D01*
X019376Y008462D02*
X019376Y007821D01*
X019376Y008462D02*
X019803Y008462D01*
X020665Y007715D02*
X021092Y007715D01*
X021309Y007821D02*
X021309Y008462D01*
X021629Y008462D01*
X021736Y008355D01*
X021736Y008142D01*
X021629Y008035D01*
X021309Y008035D01*
X021523Y008035D02*
X021736Y007821D01*
X021954Y007821D02*
X022167Y007821D01*
X022060Y007821D02*
X022060Y008462D01*
X021954Y008462D02*
X022167Y008462D01*
X022383Y008462D02*
X022810Y007821D01*
X022810Y008462D01*
X023028Y008355D02*
X023028Y007928D01*
X023135Y007821D01*
X023348Y007821D01*
X023455Y007928D01*
X023455Y008142D01*
X023241Y008142D01*
X023028Y008355D02*
X023135Y008462D01*
X023348Y008462D01*
X023455Y008355D01*
X022383Y008462D02*
X022383Y007821D01*
D16*
X016370Y011004D02*
X016375Y011217D01*
X016391Y011429D01*
X016417Y011639D01*
X016453Y011849D01*
X016500Y012056D01*
X016556Y012261D01*
X016623Y012463D01*
X016700Y012661D01*
X016786Y012856D01*
X016881Y013046D01*
X016986Y013231D01*
X017100Y013410D01*
X017222Y013584D01*
X017353Y013752D01*
X017492Y013913D01*
X017639Y014066D01*
X017792Y014213D01*
X017953Y014352D01*
X018121Y014483D01*
X018295Y014605D01*
X018474Y014719D01*
X018659Y014824D01*
X018849Y014919D01*
X019044Y015005D01*
X019242Y015082D01*
X019444Y015149D01*
X019649Y015205D01*
X019856Y015252D01*
X020066Y015288D01*
X020276Y015314D01*
X020488Y015330D01*
X020701Y015335D01*
X020914Y015330D01*
X021126Y015314D01*
X021336Y015288D01*
X021546Y015252D01*
X021753Y015205D01*
X021958Y015149D01*
X022160Y015082D01*
X022358Y015005D01*
X022553Y014919D01*
X022743Y014824D01*
X022928Y014719D01*
X023107Y014605D01*
X023281Y014483D01*
X023449Y014352D01*
X023610Y014213D01*
X023763Y014066D01*
X023910Y013913D01*
X024049Y013752D01*
X024180Y013584D01*
X024302Y013410D01*
X024416Y013231D01*
X024521Y013046D01*
X024616Y012856D01*
X024702Y012661D01*
X024779Y012463D01*
X024846Y012261D01*
X024902Y012056D01*
X024949Y011849D01*
X024985Y011639D01*
X025011Y011429D01*
X025027Y011217D01*
X025032Y011004D01*
X025027Y010791D01*
X025011Y010579D01*
X024985Y010369D01*
X024949Y010159D01*
X024902Y009952D01*
X024846Y009747D01*
X024779Y009545D01*
X024702Y009347D01*
X024616Y009152D01*
X024521Y008962D01*
X024416Y008777D01*
X024302Y008598D01*
X024180Y008424D01*
X024049Y008256D01*
X023910Y008095D01*
X023763Y007942D01*
X023610Y007795D01*
X023449Y007656D01*
X023281Y007525D01*
X023107Y007403D01*
X022928Y007289D01*
X022743Y007184D01*
X022553Y007089D01*
X022358Y007003D01*
X022160Y006926D01*
X021958Y006859D01*
X021753Y006803D01*
X021546Y006756D01*
X021336Y006720D01*
X021126Y006694D01*
X020914Y006678D01*
X020701Y006673D01*
X020488Y006678D01*
X020276Y006694D01*
X020066Y006720D01*
X019856Y006756D01*
X019649Y006803D01*
X019444Y006859D01*
X019242Y006926D01*
X019044Y007003D01*
X018849Y007089D01*
X018659Y007184D01*
X018474Y007289D01*
X018295Y007403D01*
X018121Y007525D01*
X017953Y007656D01*
X017792Y007795D01*
X017639Y007942D01*
X017492Y008095D01*
X017353Y008256D01*
X017222Y008424D01*
X017100Y008598D01*
X016986Y008777D01*
X016881Y008962D01*
X016786Y009152D01*
X016700Y009347D01*
X016623Y009545D01*
X016556Y009747D01*
X016500Y009952D01*
X016453Y010159D01*
X016417Y010369D01*
X016391Y010579D01*
X016375Y010791D01*
X016370Y011004D01*
M02*
